<?xml version="1.0" encoding="utf-8"?>
<!-- Generator: Adobe Illustrator 18.1.0, SVG Export Plug-In . SVG Version: 6.00 Build 0)  -->
<!DOCTYPE svg PUBLIC "-//W3C//DTD SVG 1.1//EN" "https://www.w3.org/Graphics/SVG/1.1/DTD/svg11.dtd">
<svg version="1.1" id="Layer_1" xmlns="https://www.w3.org/2000/svg" xmlns:xlink="https://www.w3.org/1999/xlink" x="0px" y="0px"
	 viewBox="0 0 880 496" enable-background="new 0 0 880 496" xml:space="preserve">
<g>
	<g>
		<path fill="#FFFFFF" d="M49.6,383v57.3c0,3-0.8,10.5-11,10.5c-10.5,0-11.6-7.2-11.6-10.5V294.9c0-7.4,2.8-11,11-11h44.6
			c11.6,0,23.7,0.3,34.2,4.1c18.5,7.2,28.1,24.2,28.1,45.2c0,5.2-0.6,9.6-1.4,13.8c-2.2,9.6-6.3,17.9-14.1,24.2
			c-13.2,11-27.3,11.6-42.4,11.6H49.5L49.6,383L49.6,383z M49.6,362.9h28.9c19.6,0.3,26.7-0.8,33.3-5.5c7.7-5.5,10.7-14.9,10.7-24.2
			c0-6.1-1.4-12.4-5-17.6c-8.5-12.1-28.7-12.1-42.2-12.1H49.4v59.4H49.6z"/>
		<path fill="#FFFFFF" d="M172.1,282.8c6.9,0,13.2,4.7,13.2,13.2c0,8-5.2,13-13.2,13c-8.5,0-13.2-5.5-13.2-13
			C159.1,287.5,164.9,282.8,172.1,282.8z M183.1,440.3c0,1.9-0.6,3.9-1.1,5.2c-0.8,2.2-3.9,5.5-9.4,5.5c-6.3,0-10.7-3.9-10.7-10.5
			V337.3c0-2.8,0.8-10.2,10.5-10.2c9.9,0,10.7,7.4,10.7,10.2V440.3L183.1,440.3z"/>
		<path fill="#FFFFFF" d="M231.3,440.3c0,2.8-0.8,10.5-10.7,10.5c-6.1,0-10.7-3.6-10.7-10.5V293c0-2.8,1.1-10.2,10.7-10.2
			c9.9,0,10.7,7.4,10.7,10.2V440.3z"/>
		<path fill="#FFFFFF" d="M353.3,434.8c-14.3,15.7-32,17.1-43,17.1c-12.1,0-28.9-1.7-42.4-16.5c-14.6-16-14.9-37.5-14.9-46.3
			c0-11.3,1.1-30.9,14.6-46.3c14.6-16.3,33.9-17.6,44.1-17.6c34.4,0,57.3,22,57.3,62C368.7,398.2,367.6,418.8,353.3,434.8z
			 M337.9,421.9c8.3-10.5,8.5-25.6,8.5-32.8c0-22.6-7.4-45.5-36.1-45.5c-6.3,0-18.7,0.8-27.6,13.2c-6.1,8.8-8,21.2-8,32.2
			c0,11.8,2.2,24.8,8.5,33.3c4.7,5.8,13.8,11.8,27.3,11.8C321.1,434.6,331.5,430.1,337.9,421.9z"/>
		<path fill="#FFFFFF" d="M392.6,346.4h-12.4c-2.5,0-8.8-0.8-8.8-9.1c0-8.5,6.3-9.1,8.8-9.1h12.7V301c0-3,0.8-10.2,10.5-10.2
			c10.2,0,10.7,6.9,10.7,10.2v27.3h14.6c2.8,0,8.8,0.8,8.8,9.1c0,8.3-6.3,9.1-8.8,9.1h-14.6v59.5c0,14.1,0.3,15.7,0.8,18.5
			c1.7,6.9,6.1,8,12.4,8.5c5.5,0.3,11.6,0.8,11.6,8.8s-7.4,9.1-13.8,9.1c-32.5,0-32.5-17.6-32.5-35.8V346.4z"/>
		<path fill="#FFFFFF" d="M475.8,440.3c0,2.8-0.8,10.5-10.7,10.5c-6.1,0-10.7-3.6-10.7-10.5V293c0-2.8,1.1-10.2,10.7-10.2
			c9.9,0,10.7,7.4,10.7,10.2V440.3z"/>
		<path fill="#FFFFFF" d="M512.9,282.8c6.9,0,13.2,4.7,13.2,13.2c0,8-5.2,13-13.2,13c-8.5,0-13.2-5.5-13.2-13
			C500.1,287.5,505.9,282.8,512.9,282.8z M523.7,440.3c0,1.9-0.6,3.9-1.1,5.2c-0.8,2.2-3.9,5.5-9.4,5.5c-6.3,0-10.7-3.9-10.7-10.5
			V337.3c0-2.8,0.8-10.2,10.5-10.2c9.9,0,10.7,7.4,10.7,10.2V440.3L523.7,440.3z"/>
		<path fill="#FFFFFF" d="M649.2,433.5c0,25.6-3,38-12.4,46.6c-8.3,7.4-22.3,11.6-38.3,11.6c-13.5,0-25.9-2.8-34.2-8.8
			c-8.3-5.8-13.8-16-13.8-22.3c0-7.2,6.3-10.2,11.3-10.2c7.2,0,9.4,5,11.3,8.8c2.2,4.1,3,6.1,4.7,8c5.2,5.8,16.8,6.6,22.3,6.6
			c27.8,0,28.9-17.9,29.2-33.9l0.3-10.7c-5.5,6.3-14.1,16.5-35.3,16.5c-35.3,0-49.9-27-49.9-57.9c0-8.3,0.8-16.3,3-24.2
			c6.9-23.1,24-37.5,49.3-37.5c8.5,0,14.9,1.7,19.3,3.6c8.8,3.9,11.8,8.5,14.6,12.7c0.3-7.7,0.3-8.8,1.1-10.7
			c0.8-1.7,3.3-4.1,8.3-4.1c8.8,0,9.6,6.3,9.6,8.8v97.2h-0.4V433.5z M599.2,344.2c-7.7,0-17.9,2.5-25.4,12.7
			c-5.5,8.3-7.4,19.3-7.4,28.9c0,10.5,1.9,22,7.4,29.5c4.7,6.6,13,11.6,23.4,11.6c10.7,0,20.7-5.5,25.9-13
			c6.3-9.1,6.9-24.2,6.9-29.8C629.8,378.1,629.8,344.2,599.2,344.2z"/>
		<path fill="#FFFFFF" d="M698.3,342c8.5-11.3,23.4-16.3,37.2-16.3c22.3,0,30.9,11.6,32.8,14.1c7.4,10.5,7.4,24.2,7.4,35.3v65
			c0,1.9-0.6,3.9-1.1,5.2c-0.8,2.2-3.9,5.5-9.6,5.5c-9.9,0-10.7-7.4-10.7-10.5v-58.7c0-14.6-0.6-20.7-3.3-26.2
			c-5.5-10.2-16.3-10.2-19.8-10.2c-10.2,0-18.7,4.1-24.2,9.9c-8.5,8.8-8.8,19-8.8,30v55.4c0,1.9-0.6,3.9-1.1,5.2
			c-0.8,2.2-3.9,5.5-9.6,5.5c-9.9,0-10.7-7.4-10.7-10.5V294.1c0-3,0.8-10.7,10.7-10.7c9.9,0,11,7.7,11,10.5V342H698.3z"/>
		<path fill="#FFFFFF" d="M806.7,346.4h-12.4c-2.5,0-8.8-0.8-8.8-9.1c0-8.5,6.3-9.1,8.8-9.1H807V301c0-3,0.8-10.2,10.5-10.2
			c10.2,0,10.7,6.9,10.7,10.2v27.3h14.6c2.8,0,8.8,0.8,8.8,9.1c0,8.3-6.3,9.1-8.8,9.1h-14.6v59.5c0,14.1,0.3,15.7,0.8,18.5
			c1.7,6.9,6.1,8,12.4,8.5c5.5,0.3,11.6,0.8,11.6,8.8s-7.4,9.1-13.8,9.1c-32.5,0-32.5-17.6-32.5-35.8V346.4z"/>
	</g>
	
		<linearGradient id="SVGID_1_" gradientUnits="userSpaceOnUse" x1="759.5997" y1="60.6506" x2="1106.1222" y2="304.0222" gradientTransform="matrix(0.62 0 0 -0.62 68 307.52)">
		<stop  offset="0" style="stop-color:#FFFFFF"/>
		<stop  offset="1" style="stop-color:#FFFFFF;stop-opacity:0"/>
	</linearGradient>
	<path fill="url(#SVGID_1_)" d="M743.7,162.5c1.4-0.8,2.8-1.7,4.1-2.5c13.5-9.6,16.8-28.4,7.2-41.9c-9.6-13.5-28.4-16.8-41.9-7.2
		c-1.4,1.1-2.5,1.9-3.9,3.3C708.1,115,540.4,258.8,540.1,259c-4.1,3-5.2,8.8-2.2,13c3,4.2,8.8,5.2,13,2.2
		C551.2,274,742.4,163.3,743.7,162.5z"/>
	
		<linearGradient id="SVGID_2_" gradientUnits="userSpaceOnUse" x1="735.5565" y1="84.8245" x2="869.3303" y2="489.3693" gradientTransform="matrix(0.62 0 0 -0.62 68 307.52)">
		<stop  offset="0" style="stop-color:#FFFFFF"/>
		<stop  offset="1" style="stop-color:#FFFFFF;stop-opacity:0"/>
	</linearGradient>
	<path fill="url(#SVGID_2_)" d="M623.7,48.2c0.8-1.4,1.4-3,1.9-4.4c5.2-15.7-3.6-32.8-19.3-38c-15.7-5.2-32.8,3.6-38,19.3
		c-0.6,1.7-0.8,3.3-1.1,4.7c-0.6,1.4-49.3,216.7-49.6,217.2c-1.7,5,1.1,10.2,6.1,11.8c5,1.7,10.2-1.1,11.8-6.1
		C535.5,252.2,623.1,49.5,623.7,48.2z"/>
	
		<linearGradient id="SVGID_3_" gradientUnits="userSpaceOnUse" x1="680.1413" y1="55.9295" x2="317.5015" y2="308.9715" gradientTransform="matrix(0.62 0 0 -0.62 68 307.52)">
		<stop  offset="0" style="stop-color:#FFFFFF"/>
		<stop  offset="1" style="stop-color:#FFFFFF;stop-opacity:0"/>
	</linearGradient>
	<path fill="url(#SVGID_3_)" d="M279.5,162.5c-1.4-0.8-2.8-1.7-4.1-2.5c-13.5-9.6-16.8-28.4-7.2-41.9c9.6-13.5,28.4-16.8,41.9-7.2
		c1.4,1.1,2.5,1.9,3.9,3.3c1.1,0.8,168.8,144.6,169.1,144.8c4.1,3,5.2,8.8,2.2,13c-3,4.1-8.8,5.2-13,2.2
		C471.7,274,280.6,163.3,279.5,162.5z"/>
	
		<linearGradient id="SVGID_4_" gradientUnits="userSpaceOnUse" x1="696.1491" y1="80.394" x2="560.7636" y2="491.3858" gradientTransform="matrix(0.62 0 0 -0.62 68 307.52)">
		<stop  offset="0" style="stop-color:#FFFFFF"/>
		<stop  offset="1" style="stop-color:#FFFFFF;stop-opacity:0"/>
	</linearGradient>
	<path fill="url(#SVGID_4_)" d="M399.5,48.7c-0.8-1.4-1.4-3-1.9-4.4c-5.2-15.7,3.6-32.8,19.3-38c15.7-5.2,32.8,3.6,38,19.3
		c0.6,1.7,0.8,3.3,1.1,4.7c0.6,1.4,49.3,216.7,49.6,217.2c1.7,5-1.1,10.2-6.1,11.8c-5,1.7-10.2-1.1-11.8-6.1
		C487.7,252.8,400,50.1,399.5,48.7z"/>
</g>
</svg>
