<?xml version="1.0" encoding="iso-8859-1"?>
<!-- Generator: Adobe Illustrator 19.1.0, SVG Export Plug-In . SVG Version: 6.00 Build 0)  -->
<svg version="1.1" xmlns="http://www.w3.org/2000/svg" xmlns:xlink="http://www.w3.org/1999/xlink" x="0px" y="0px"
	 viewBox="0 0 302.633 212.782" style="enable-background:new 0 0 302.633 212.782;" xml:space="preserve">
<g id="full">
	<g>
		<g>
			<path style="fill:#3D3D3B;" d="M0,93.849c0-6.183,4.91-11.093,11.275-11.093c6.183,0,11.093,4.91,11.093,11.093V200.78
				c0,6.183-4.91,11.093-11.093,11.093C4.91,211.872,0,206.962,0,200.78V93.849z"/>
			<path style="fill:#3D3D3B;" d="M40.187,124.947c0-6.184,4.729-11.094,10.911-11.094c6.183,0,11.093,4.91,11.093,11.094v9.819
				c5.092-12.002,14.548-21.095,24.187-21.095c6.911,0,10.912,4.546,10.912,10.911c0,5.819-3.819,9.639-8.729,10.548
				c-15.64,2.728-26.369,14.729-26.369,37.462v28.369c0,6.001-4.91,10.911-11.093,10.911c-6.001,0-10.911-4.729-10.911-10.911
				V124.947z"/>
			<path style="fill:#3D3D3B;" d="M105.507,89.121c0-6.547,5.456-10.729,12.548-10.729c7.092,0,12.548,4.183,12.548,10.729v1.091
				c0,6.546-5.456,10.911-12.548,10.911c-7.093,0-12.548-4.365-12.548-10.911V89.121z M107.144,124.947
				c0-6.184,4.729-11.094,10.912-11.094c6.183,0,11.093,4.91,11.093,11.094v76.015c0,6.183-4.91,10.911-11.093,10.911
				c-6.001,0-10.912-4.729-10.912-10.911V124.947z"/>
			<path style="fill:#3D3D3B;" d="M146.55,201.325c-2.364-1.272-4.183-4-4.183-7.638c0-4.91,3.819-8.911,8.911-8.911
				c1.818,0,3.455,0.546,4.728,1.273c9.275,6.183,18.913,9.274,27.642,9.274c9.457,0,14.912-4.001,14.912-10.365v-0.364
				c0-7.456-10.184-10.002-21.459-13.457c-14.185-4.001-30.006-9.82-30.006-28.188v-0.363c0-18.186,15.094-29.279,34.188-29.279
				c10.184,0,20.913,2.91,30.188,7.82c3.091,1.637,5.273,4.546,5.273,8.365c0,5.092-4,8.911-9.093,8.911
				c-1.818,0-2.909-0.364-4.364-1.092c-7.82-4-15.821-6.546-22.55-6.546c-8.547,0-13.458,4-13.458,9.456v0.363
				c0,7.093,10.366,10.002,21.641,13.64c14.003,4.364,29.824,10.729,29.824,28.005v0.364c0,20.186-15.639,30.188-35.644,30.188
				C170.918,212.782,157.643,208.963,146.55,201.325z"/>
			<path style="fill:#3D3D3B;" d="M230.437,201.325c-2.364-1.272-4.183-4-4.183-7.638c0-4.91,3.819-8.911,8.911-8.911
				c1.818,0,3.455,0.546,4.728,1.273c9.275,6.183,18.913,9.274,27.642,9.274c9.456,0,14.912-4.001,14.912-10.365v-0.364
				c0-7.456-10.184-10.002-21.459-13.457c-14.185-4.001-30.006-9.82-30.006-28.188v-0.363c0-18.186,15.094-29.279,34.188-29.279
				c10.184,0,20.913,2.91,30.188,7.82c3.091,1.637,5.273,4.546,5.273,8.365c0,5.092-4,8.911-9.092,8.911
				c-1.819,0-2.91-0.364-4.365-1.092c-7.82-4-15.821-6.546-22.55-6.546c-8.547,0-13.458,4-13.458,9.456v0.363
				c0,7.093,10.366,10.002,21.641,13.64c14.003,4.364,29.824,10.729,29.824,28.005v0.364c0,20.186-15.639,30.188-35.644,30.188
				C254.806,212.782,241.53,208.963,230.437,201.325z"/>
		</g>
		<path style="fill:#3D3D3B;" d="M105.507,89.121c0-6.547,5.456-10.729,12.548-10.729c7.092,0,12.548,4.183,12.548,10.729v1.091
			c0,6.546-5.456,10.911-12.548,10.911c-7.093,0-12.548-4.365-12.548-10.911V89.121z"/>
		<path style="fill:#D2D653;" d="M127.755,58.726c0-10.592,8.827-17.36,20.302-17.36c11.475,0,20.302,6.767,20.302,17.36v1.766
			c0,10.591-8.827,17.653-20.302,17.653c-11.476,0-20.302-7.063-20.302-17.653V58.726"/>
		<path style="fill:#91C050;" d="M178.059,0c-18.567,0-32.849,10.949-32.849,28.088v2.857c0,3.776,0.694,7.275,1.973,10.435
			c0.289-0.009,0.581-0.013,0.873-0.013c11.354,0,20.116,6.626,20.299,17.028c3.05,0.731,6.305,1.113,9.704,1.113
			c18.566,0,32.848-11.427,32.848-28.563v-2.857C210.907,10.949,196.625,0,178.059,0"/>
		<path style="fill:#6EB038;" d="M148.057,41.366c-0.293,0-0.584,0.004-0.873,0.013c3.465,8.557,11.23,14.633,21.172,17.014
			C168.173,47.992,159.412,41.366,148.057,41.366"/>
	</g>
</g>
<g id="Layer_1">
</g>
</svg>
