<?xml version="1.0" standalone="no"?>
<!DOCTYPE svg PUBLIC "-//W3C//DTD SVG 20010904//EN"
 "http://www.w3.org/TR/2001/REC-SVG-20010904/DTD/svg10.dtd">
<svg version="1.0" xmlns="http://www.w3.org/2000/svg"
 width="700.000000pt" height="700.000000pt" viewBox="0 0 700.000000 700.000000"
 preserveAspectRatio="xMidYMid meet">
<metadata>
Created by potrace 1.11, written by Peter Selinger 2001-2013
</metadata>
<g transform="translate(0.000000,700.000000) scale(0.100000,-0.100000)"
fill="#000000" stroke="none">
<path d="M3415 6981 c-22 -10 -54 -32 -71 -50 -65 -67 -63 -41 -63 -810 0
-647 2 -700 18 -737 64 -140 242 -177 350 -72 70 69 66 17 68 804 l2 710 -24
47 c-40 79 -99 119 -185 123 -37 2 -68 -3 -95 -15z"/>
<path d="M1104 6024 c-115 -42 -171 -177 -122 -294 20 -48 989 -1017 1038
-1038 51 -22 118 -22 170 0 59 25 88 53 115 111 25 53 26 122 1 180 -19 46
-989 1015 -1035 1034 -51 22 -120 25 -167 7z"/>
<path d="M5730 6018 c-52 -26 -1010 -981 -1033 -1030 -22 -47 -27 -117 -11
-165 41 -121 185 -181 301 -126 42 20 1005 980 1028 1025 28 53 28 135 1 190
-37 77 -101 119 -188 123 -41 2 -68 -2 -98 -17z"/>
<path d="M3305 4799 c-83 -12 -225 -54 -325 -96 -407 -173 -702 -552 -775
-995 -17 -107 -17 -321 1 -423 84 -485 419 -874 887 -1030 260 -86 558 -86
822 1 461 153 808 564 881 1046 22 144 14 366 -17 483 -40 152 -134 382 -161
393 -4 2 -8 8 -8 12 0 11 -31 58 -91 135 -136 175 -370 338 -594 414 -97 32
-111 36 -225 56 -83 14 -303 17 -395 4z m345 -440 c174 -29 338 -115 465 -243
90 -91 105 -112 161 -223 70 -137 94 -241 95 -403 3 -467 -395 -863 -866 -862
-144 1 -253 25 -380 86 -544 259 -668 980 -240 1402 140 139 324 229 510 250
33 3 61 7 62 8 5 5 133 -5 193 -15z"/>
<path d="M170 3713 c-111 -36 -171 -117 -166 -223 5 -89 51 -155 136 -192 36
-16 102 -17 730 -17 766 0 746 -1 814 66 106 106 78 277 -59 351 -27 15 -99
17 -735 18 -388 1 -712 0 -720 -3z"/>
<path d="M5406 3710 c-155 -46 -205 -248 -90 -364 65 -64 20 -61 789 -63 773
-3 759 -4 824 59 45 44 63 84 67 147 4 64 -18 121 -62 164 -66 66 -19 62 -794
63 -388 1 -718 -2 -734 -6z"/>
<path d="M2045 2318 c-16 -6 -43 -20 -58 -31 -16 -11 -246 -237 -512 -503
-526 -526 -516 -515 -510 -621 9 -143 150 -234 290 -186 39 13 115 84 541 510
312 312 500 508 509 529 47 113 5 234 -102 288 -40 20 -119 27 -158 14z"/>
<path d="M4845 2320 c-127 -29 -197 -152 -159 -281 13 -42 63 -96 510 -543
272 -273 510 -504 527 -512 68 -36 180 -21 239 31 70 61 95 171 57 252 -24 53
-979 1011 -1033 1037 -41 19 -98 26 -141 16z"/>
<path d="M3436 1740 c-66 -21 -127 -82 -146 -149 -5 -17 -9 -338 -9 -721 0
-759 -1 -735 62 -800 43 -44 83 -62 146 -66 93 -5 174 45 211 132 17 39 18 93
19 732 0 761 2 747 -61 811 -18 18 -45 39 -61 48 -36 18 -122 26 -161 13z"/>
</g>
</svg>
