<?xml version="1.0" encoding="utf-8"?>
<!-- Generator: Adobe Illustrator 18.1.1, SVG Export Plug-In . SVG Version: 6.00 Build 0)  -->
<!DOCTYPE svg PUBLIC "-//W3C//DTD SVG 1.1//EN" "http://www.w3.org/Graphics/SVG/1.1/DTD/svg11.dtd">
<svg version="1.1" id="Layer_1" xmlns="http://www.w3.org/2000/svg" xmlns:xlink="http://www.w3.org/1999/xlink" x="0px" y="0px"
	 width="640px" height="640px" viewBox="20 -120 640 640" enable-background="new 20 -120 640 640" xml:space="preserve">
<g id="icomoon-ignore">
</g>
<path fill="#FFFFFF" d="M500-24h-64c-17.7,0-32,1.5-32,19.2v409.6c0,17.7,14.3,19.2,32,19.2h64c17.7,0,32-1.5,32-19.2V-4.8
	C532-22.5,517.7-24,500-24L500-24z M244-24h-64c-17.7,0-32,1.5-32,19.2v409.6c0,17.7,14.3,19.2,32,19.2h64c17.7,0,32-1.5,32-19.2
	V-4.8C276-22.5,261.7-24,244-24L244-24z"/>
</svg>
