<?xml version="1.0" encoding="utf-8"?>
<!-- Generator: Adobe Illustrator 18.1.1, SVG Export Plug-In . SVG Version: 6.00 Build 0)  -->
<!DOCTYPE svg PUBLIC "-//W3C//DTD SVG 1.1//EN" "https://www.w3.org/Graphics/SVG/1.1/DTD/svg11.dtd">
<svg version="1.1" id="Layer_1" xmlns="https://www.w3.org/2000/svg" xmlns:xlink="https://www.w3.org/1999/xlink" x="0px" y="0px"
	 width="640px" height="640px" viewBox="20 -120 640 640" enable-background="new 20 -120 640 640" xml:space="preserve">
<g id="icomoon-ignore">
</g>
<path fill="#FFFFFF" d="M594.7,26.3L364.2,184.6c0,0-8.9,6.4-8.9,15.4s8.9,15.3,8.9,15.3l230.5,158.4C613,386,628,377,628,353.8
	V46.3C628,23,613,14,594.7,26.3z M304.3,26.3L73.8,184.6c0,0-8.9,6.4-8.9,15.4s8.9,15.3,8.9,15.3l230.5,158.4
	c18.3,12.2,33.3,3.2,33.3-20V46.3C337.6,23,322.6,14,304.3,26.3L304.3,26.3z"/>
</svg>
