<?xml version="1.0" encoding="utf-8"?>
<!-- Generator: Adobe Illustrator 18.1.1, SVG Export Plug-In . SVG Version: 6.00 Build 0)  -->
<!DOCTYPE svg PUBLIC "-//W3C//DTD SVG 1.1//EN" "https://www.w3.org/Graphics/SVG/1.1/DTD/svg11.dtd">
<svg version="1.1" id="Layer_1" xmlns="https://www.w3.org/2000/svg" xmlns:xlink="https://www.w3.org/1999/xlink" x="0px" y="0px"
	 width="640px" height="640px" viewBox="20 -120 640 640" enable-background="new 20 -120 640 640" xml:space="preserve">
<g id="icomoon-ignore">
</g>
<path fill="#FFFFFF" d="M315.8,184.6L85.3,26.3C67,14,52,23,52,46.3v307.5c0,23.2,15,32.2,33.3,20l230.5-158.4c0,0,8.9-6.4,8.9-15.3
	C324.7,191.1,315.8,184.6,315.8,184.6z M615.2,200c0,8.9-8.9,15.3-8.9,15.3L375.8,373.8c-18.3,12.2-33.3,3.2-33.3-20V46.3
	c0-23.3,15-32.3,33.3-20l230.5,158.4C606.2,184.6,615.2,191.1,615.2,200L615.2,200z"/>
</svg>
