<?xml version="1.0" encoding="utf-8"?>
<!-- Generator: Adobe Illustrator 18.1.0, SVG Export Plug-In . SVG Version: 6.00 Build 0)  -->
<!DOCTYPE svg PUBLIC "-//W3C//DTD SVG 1.1//EN" "http://www.w3.org/Graphics/SVG/1.1/DTD/svg11.dtd">
<svg version="1.1" id="Layer_1" xmlns="http://www.w3.org/2000/svg" xmlns:xlink="http://www.w3.org/1999/xlink" x="0px" y="0px"
	 viewBox="0 0 720 300" enable-background="new 0 0 720 300" xml:space="preserve">
<rect fill="#2D629E" width="720" height="300"/>
<polygon fill="#3068A8" points="270,150 180,300 90,150 "/>
<polygon fill="#306DAE" points="180,300 270,150 360,300 "/>
<polygon fill="#2E66A4" points="360,300 450,150 540,300 "/>
<polygon fill="#2D629E" points="90,150 0,300 -90,150 "/>
<polygon fill="#2A5B93" points="810,150 720,300 630,150 "/>
<polygon fill="#2E66A4" points="0,300 90,150 181,300 "/>
<polygon fill="#306DAE" points="720,0 630,150 540,0 "/>
<polygon fill="#3068A8" points="540,0 450,150 360,0 "/>
<polygon fill="#306AAB" points="450,150 540,0 631,150 "/>
<polygon fill="#3068A8" points="630,150 720,0 810,150 "/>
<polygon fill="#3068A8" points="360,0 270,150 180,0 "/>
<polygon fill="#2D629E" points="180,0 90,150 0,0 "/>
<polygon fill="#2E66A4" points="90,150 180,0 270,150 "/>
<polygon fill="#2E66A4" points="270,150 360,0 450,150 "/>
<polygon fill="#2E66A4" points="630,150 540,300 450,150 "/>
<polygon fill="#3370B4" points="450,150 360,300 270,150 "/>
<polygon fill="#306AAB" points="540,300 630,150 720,300 "/>
<polygon fill="#2D629E" points="-90,150 0,0 90,150 "/>
<g>
</g>
<g>
</g>
<g>
</g>
<g>
</g>
<g>
</g>
<g>
</g>
<g>
</g>
<g>
</g>
<g>
</g>
<g>
</g>
<g>
</g>
<g>
</g>
<g>
</g>
<g>
</g>
<g>
</g>
</svg>
