<?xml version="1.0" encoding="utf-8"?>
<!-- Generator: Adobe Illustrator 18.1.0, SVG Export Plug-In . SVG Version: 6.00 Build 0)  -->
<!DOCTYPE svg PUBLIC "-//W3C//DTD SVG 1.1//EN" "https://www.w3.org/Graphics/SVG/1.1/DTD/svg11.dtd">
<svg version="1.1" id="Layer_1" xmlns="https://www.w3.org/2000/svg" xmlns:xlink="https://www.w3.org/1999/xlink" x="0px" y="0px"
	 width="1800px" height="150px" viewBox="0 0 1800 150" enable-background="new 0 0 1800 150" xml:space="preserve">
<g>
	<polygon fill="#3068A8" points="900,0 810,150 720,0 	"/>
	<polygon fill="#3068A8" points="1260,0 1170,150 1080,0 	"/>
	<polygon fill="#306DAE" points="1170,150 1260,0 1350,150 	"/>
	<polygon fill="#2E66A4" points="1350,150 1440,0 1530,150 	"/>
	<polygon fill="#2D629E" points="1080,0 990,150 900,0 	"/>
	<polygon fill="#2A5B93" points="1800,0 1710,150 1620,0 	"/>
	<polygon fill="#2E66A4" points="810,150 900,0 990,150 	"/>
	<polygon fill="#2E66A4" points="990,150 1080,0 1171,150 	"/>
	<polygon fill="#306DAE" points="720,0 630,150 540,0 	"/>
	<polygon fill="#3068A8" points="540,0 450,150 360,0 	"/>
	<polygon fill="#306AAB" points="450,150 540,0 631,150 	"/>
	<polygon fill="#3068A8" points="630,150 720,0 810,150 	"/>
	<polygon fill="#3068A8" points="360,0 270,150 180,0 	"/>
	<polygon fill="#2D629E" points="180,0 90,150 0,0 	"/>
	<polygon fill="#2E66A4" points="90,150 180,0 270,150 	"/>
	<polygon fill="#2E66A4" points="270,150 360,0 450,150 	"/>
	<polygon fill="#2E66A4" points="1620,0 1530,150 1440,0 	"/>
	<polygon fill="#3370B4" points="1440,0 1350,150 1260,0 	"/>
	<polygon fill="#306AAB" points="1530,150 1620,0 1710,150 	"/>
	<polygon fill="#2D629E" points="-90,150 0,0 90,150 	"/>
	<polygon fill="#2D629E" points="1710,150 1800,0 1890,150 	"/>
</g>
</svg>
