<?xml version="1.0" encoding="utf-8"?>
<!-- Generator: Adobe Illustrator 18.1.1, SVG Export Plug-In . SVG Version: 6.00 Build 0)  -->
<!DOCTYPE svg PUBLIC "-//W3C//DTD SVG 1.1//EN" "https://www.w3.org/Graphics/SVG/1.1/DTD/svg11.dtd">
<svg version="1.1" id="Layer_1" xmlns="https://www.w3.org/2000/svg" xmlns:xlink="https://www.w3.org/1999/xlink" x="0px" y="0px"
	 width="1024px" height="372.364px" viewBox="0 0 1024 372.364" enable-background="new 0 0 1024 372.364" xml:space="preserve">
<g>
	<g>
		<rect x="0" y="0" fill="#FFFFFF" width="1024" height="372.364"/>
	</g>
	<g>
		<defs>
			<rect id="SVGID_1_" x="31.777" y="46.055" width="960.445" height="278.537"/>
		</defs>
		<clipPath id="SVGID_2_">
			<use xlink:href="#SVGID_1_"  overflow="visible"/>
		</clipPath>
		<g clip-path="url(#SVGID_2_)">
			<path fill="#306EB5" d="M200.723,74.453h-42.057l0.187,82.466h58.493V94.925c-1.206-0.318-11.147,2.409-12.445,2.764
				l-5.822,1.603l0.867-5.969C200.87,86.956,201.779,80.853,200.723,74.453 M161.638,137.491h52.731v3.967h-52.731V137.491z
				 M161.638,125.598h52.731v3.967h-52.731V125.598z M161.638,89.917l35.843,0.092c-0.184,1.29-0.37,2.58-0.557,3.87h-35.286V89.917
				z M161.638,101.808h52.731v3.967h-52.731V101.808z M161.638,113.704h52.731v3.967h-52.731V113.704z M198.598,68.111
				c5.37-0.426,24.967,23.062,25.09,32.467v62.686h-71.364V68.111H198.598z"/>
		</g>
	</g>
	<g>
		<path fill="#306EB5" d="M117.655,295.611c0.645,0,1.226,0.104,1.743,0.313c0.517,0.208,0.96,0.493,1.33,0.856
			s0.652,0.783,0.847,1.26c0.194,0.477,0.292,0.99,0.292,1.542c0,0.845-0.178,1.578-0.534,2.196
			c-0.356,0.618-0.937,1.088-1.743,1.411v0.04c0.39,0.108,0.712,0.272,0.967,0.494c0.255,0.222,0.464,0.484,0.625,0.785
			c0.162,0.303,0.279,0.635,0.353,0.998s0.124,0.725,0.151,1.088c0.013,0.228,0.027,0.498,0.04,0.807
			c0.013,0.309,0.037,0.625,0.071,0.947c0.033,0.322,0.087,0.629,0.161,0.917s0.185,0.534,0.332,0.735h-3.163
			c-0.175-0.457-0.282-1.001-0.323-1.632c-0.04-0.632-0.101-1.237-0.182-1.814c-0.107-0.753-0.335-1.303-0.685-1.652
			c-0.35-0.349-0.92-0.525-1.713-0.525h-3.164V310h-3.163v-14.388H117.655z M116.527,302.121c0.725,0,1.269-0.162,1.632-0.484
			c0.362-0.322,0.544-0.847,0.544-1.571c0-0.699-0.182-1.206-0.544-1.521c-0.363-0.316-0.907-0.473-1.632-0.473h-3.466v4.05H116.527
			z"/>
		<path fill="#306EB5" d="M127.207,307.501c0.43,0.417,1.048,0.625,1.854,0.625c0.578,0,1.075-0.144,1.491-0.434
			c0.416-0.289,0.672-0.594,0.766-0.916h2.519c-0.403,1.249-1.021,2.142-1.854,2.68c-0.833,0.538-1.841,0.806-3.023,0.806
			c-0.82,0-1.559-0.131-2.217-0.393c-0.658-0.262-1.215-0.635-1.672-1.119c-0.457-0.484-0.809-1.061-1.058-1.733
			c-0.248-0.671-0.373-1.41-0.373-2.217c0-0.779,0.128-1.505,0.383-2.176c0.255-0.672,0.618-1.253,1.088-1.743
			c0.47-0.49,1.031-0.876,1.682-1.158c0.652-0.282,1.373-0.423,2.166-0.423c0.887,0,1.659,0.171,2.317,0.513
			c0.658,0.343,1.199,0.803,1.622,1.38c0.423,0.579,0.729,1.237,0.917,1.976c0.188,0.739,0.255,1.511,0.201,2.317h-7.517
			C126.542,306.413,126.776,307.085,127.207,307.501z M130.441,302.019c-0.343-0.376-0.863-0.563-1.561-0.563
			c-0.457,0-0.836,0.077-1.139,0.231c-0.302,0.155-0.544,0.346-0.725,0.575c-0.181,0.228-0.309,0.471-0.382,0.725
			c-0.074,0.255-0.118,0.484-0.131,0.686h4.655C131.022,302.947,130.783,302.396,130.441,302.019z"/>
		<path fill="#306EB5" d="M138.119,307.41c0.128,0.222,0.292,0.404,0.494,0.545c0.201,0.141,0.433,0.245,0.695,0.312
			c0.262,0.068,0.534,0.101,0.817,0.101c0.201,0,0.413-0.024,0.635-0.071c0.221-0.047,0.423-0.122,0.604-0.222
			c0.182-0.101,0.332-0.235,0.453-0.403c0.121-0.168,0.182-0.38,0.182-0.635c0-0.43-0.286-0.753-0.857-0.967
			c-0.571-0.216-1.367-0.43-2.387-0.645c-0.417-0.094-0.824-0.204-1.219-0.332c-0.396-0.127-0.749-0.295-1.058-0.504
			c-0.309-0.208-0.557-0.47-0.745-0.785c-0.189-0.316-0.282-0.702-0.282-1.16c0-0.671,0.131-1.221,0.393-1.652
			c0.262-0.43,0.607-0.768,1.038-1.017c0.43-0.249,0.913-0.423,1.451-0.523c0.537-0.101,1.088-0.151,1.652-0.151
			c0.564,0,1.112,0.054,1.642,0.16c0.531,0.108,1.004,0.29,1.421,0.545s0.763,0.594,1.038,1.017c0.275,0.423,0.44,0.957,0.494,1.602
			h-2.72c-0.04-0.552-0.249-0.924-0.625-1.119c-0.377-0.195-0.82-0.293-1.33-0.293c-0.161,0-0.335,0.01-0.524,0.031
			c-0.188,0.019-0.359,0.063-0.514,0.131c-0.155,0.067-0.285,0.164-0.393,0.292c-0.108,0.127-0.162,0.299-0.162,0.513
			c0,0.255,0.094,0.463,0.282,0.625c0.188,0.162,0.434,0.292,0.736,0.393c0.302,0.101,0.648,0.192,1.038,0.272
			c0.389,0.081,0.786,0.168,1.189,0.263c0.416,0.094,0.823,0.208,1.219,0.342c0.396,0.133,0.749,0.312,1.058,0.534
			c0.309,0.222,0.557,0.498,0.745,0.826c0.188,0.33,0.282,0.735,0.282,1.219c0,0.685-0.138,1.26-0.413,1.723
			c-0.276,0.464-0.635,0.836-1.078,1.119s-0.951,0.481-1.521,0.595c-0.571,0.114-1.152,0.171-1.743,0.171
			c-0.604,0-1.196-0.06-1.773-0.181c-0.578-0.121-1.092-0.323-1.542-0.604c-0.45-0.282-0.819-0.656-1.108-1.119
			c-0.289-0.464-0.446-1.044-0.473-1.743h2.72C137.927,306.923,137.991,307.189,138.119,307.41z"/>
		<path fill="#306EB5" d="M149.594,307.501c0.43,0.417,1.048,0.625,1.854,0.625c0.578,0,1.075-0.144,1.491-0.434
			c0.416-0.289,0.672-0.594,0.766-0.916h2.519c-0.403,1.249-1.021,2.142-1.854,2.68c-0.833,0.538-1.841,0.806-3.023,0.806
			c-0.82,0-1.559-0.131-2.217-0.393c-0.658-0.262-1.215-0.635-1.672-1.119c-0.457-0.484-0.809-1.061-1.058-1.733
			c-0.248-0.671-0.373-1.41-0.373-2.217c0-0.779,0.128-1.505,0.383-2.176c0.255-0.672,0.618-1.253,1.088-1.743
			c0.47-0.49,1.031-0.876,1.682-1.158c0.652-0.282,1.373-0.423,2.166-0.423c0.887,0,1.659,0.171,2.317,0.513
			c0.658,0.343,1.199,0.803,1.622,1.38c0.423,0.579,0.729,1.237,0.917,1.976c0.188,0.739,0.255,1.511,0.201,2.317h-7.517
			C148.929,306.413,149.164,307.085,149.594,307.501z M152.828,302.019c-0.343-0.376-0.863-0.563-1.561-0.563
			c-0.457,0-0.836,0.077-1.139,0.231c-0.302,0.155-0.544,0.346-0.725,0.575c-0.181,0.228-0.309,0.471-0.382,0.725
			c-0.074,0.255-0.118,0.484-0.132,0.686h4.655C153.409,302.947,153.171,302.396,152.828,302.019z"/>
		<path fill="#306EB5" d="M157.977,302.785c0.04-0.671,0.208-1.229,0.504-1.672c0.296-0.444,0.672-0.799,1.129-1.069
			c0.457-0.268,0.97-0.461,1.541-0.575s1.146-0.171,1.723-0.171c0.524,0,1.054,0.037,1.592,0.11
			c0.538,0.074,1.028,0.218,1.471,0.434c0.443,0.216,0.806,0.513,1.088,0.897c0.282,0.382,0.423,0.89,0.423,1.521v5.421
			c0,0.47,0.027,0.92,0.081,1.35c0.053,0.43,0.148,0.753,0.282,0.967h-2.902c-0.054-0.162-0.098-0.326-0.131-0.494
			c-0.033-0.168-0.057-0.339-0.071-0.513c-0.457,0.47-0.994,0.799-1.612,0.987c-0.618,0.189-1.249,0.282-1.894,0.282
			c-0.497,0-0.961-0.06-1.391-0.181c-0.43-0.121-0.806-0.309-1.128-0.564c-0.323-0.255-0.575-0.577-0.756-0.967
			c-0.181-0.39-0.272-0.853-0.272-1.391c0-0.591,0.104-1.078,0.312-1.461c0.208-0.382,0.477-0.688,0.806-0.917
			c0.329-0.227,0.706-0.399,1.128-0.513c0.423-0.114,0.85-0.205,1.28-0.272s0.853-0.121,1.27-0.162
			c0.416-0.04,0.786-0.1,1.108-0.181c0.322-0.081,0.577-0.199,0.765-0.353c0.188-0.154,0.275-0.38,0.262-0.675
			c0-0.309-0.051-0.554-0.151-0.736c-0.101-0.181-0.235-0.322-0.403-0.423c-0.168-0.1-0.363-0.167-0.584-0.201
			c-0.222-0.033-0.461-0.05-0.716-0.05c-0.564,0-1.007,0.121-1.33,0.363c-0.323,0.241-0.511,0.644-0.564,1.208H157.977z
			 M164.587,304.902c-0.121,0.108-0.272,0.191-0.453,0.251c-0.182,0.06-0.377,0.11-0.584,0.151c-0.208,0.04-0.427,0.074-0.655,0.1
			c-0.229,0.028-0.457,0.062-0.685,0.101c-0.216,0.04-0.427,0.094-0.635,0.162c-0.208,0.067-0.39,0.158-0.544,0.272
			c-0.155,0.114-0.279,0.258-0.373,0.432c-0.094,0.176-0.141,0.396-0.141,0.666c0,0.255,0.047,0.471,0.141,0.645
			c0.094,0.174,0.221,0.312,0.382,0.413c0.162,0.1,0.35,0.171,0.564,0.21c0.215,0.041,0.436,0.062,0.665,0.062
			c0.564,0,1.001-0.095,1.31-0.282c0.309-0.189,0.537-0.413,0.685-0.676c0.148-0.262,0.239-0.526,0.272-0.795
			c0.033-0.268,0.051-0.484,0.051-0.645V304.902z"/>
		<path fill="#306EB5" d="M172.385,299.582v1.935h0.04c0.134-0.323,0.316-0.622,0.544-0.897c0.228-0.276,0.49-0.511,0.786-0.706
			c0.296-0.195,0.611-0.346,0.947-0.454c0.335-0.106,0.685-0.16,1.048-0.16c0.188,0,0.396,0.033,0.624,0.1v2.661
			c-0.134-0.027-0.296-0.05-0.484-0.071c-0.188-0.021-0.369-0.031-0.544-0.031c-0.524,0-0.967,0.089-1.33,0.262
			c-0.363,0.176-0.655,0.414-0.877,0.716c-0.222,0.303-0.38,0.656-0.473,1.058c-0.094,0.403-0.141,0.839-0.141,1.31V310h-2.861
			v-10.418H172.385z"/>
		<path fill="#306EB5" d="M182.138,301.456c-0.457,0-0.84,0.104-1.149,0.312c-0.309,0.209-0.561,0.477-0.756,0.806
			c-0.195,0.33-0.333,0.693-0.413,1.089c-0.081,0.396-0.121,0.789-0.121,1.179c0,0.376,0.04,0.758,0.121,1.148
			c0.08,0.39,0.211,0.743,0.393,1.058s0.427,0.573,0.736,0.775c0.309,0.203,0.685,0.303,1.128,0.303
			c0.685,0,1.212-0.191,1.582-0.575c0.369-0.382,0.601-0.897,0.695-1.541h2.761c-0.189,1.383-0.725,2.437-1.613,3.163
			c-0.886,0.725-2.022,1.088-3.405,1.088c-0.779,0-1.495-0.131-2.146-0.393c-0.652-0.262-1.206-0.629-1.663-1.098
			c-0.457-0.471-0.813-1.031-1.068-1.683c-0.255-0.652-0.383-1.366-0.383-2.146c0-0.806,0.117-1.555,0.353-2.246
			c0.235-0.693,0.58-1.291,1.038-1.793c0.456-0.504,1.014-0.897,1.672-1.179c0.658-0.282,1.41-0.423,2.257-0.423
			c0.618,0,1.212,0.081,1.783,0.241c0.571,0.162,1.081,0.407,1.532,0.736c0.45,0.328,0.816,0.739,1.098,1.229
			c0.282,0.49,0.444,1.071,0.484,1.743h-2.801C184.066,302.054,183.36,301.456,182.138,301.456z"/>
		<path fill="#306EB5" d="M191.589,295.611v5.421h0.06c0.363-0.605,0.826-1.044,1.391-1.32c0.564-0.276,1.115-0.413,1.652-0.413
			c0.766,0,1.394,0.104,1.884,0.312c0.49,0.209,0.876,0.498,1.158,0.867c0.282,0.369,0.48,0.82,0.595,1.35
			c0.114,0.531,0.171,1.119,0.171,1.764V310h-2.861v-5.884c0-0.859-0.135-1.501-0.403-1.924c-0.269-0.423-0.745-0.635-1.43-0.635
			c-0.779,0-1.344,0.232-1.693,0.695c-0.35,0.463-0.524,1.226-0.524,2.287V310h-2.861v-14.388H191.589z"/>
	</g>
	<g>
		<path fill="#306EB5" d="M358.666,295.611V310h-3.163v-14.388H358.666z"/>
		<path fill="#306EB5" d="M368.54,308.669c-0.336,0.564-0.776,0.971-1.32,1.22c-0.544,0.248-1.159,0.372-1.844,0.372
			c-0.779,0-1.464-0.151-2.055-0.453c-0.591-0.303-1.078-0.712-1.461-1.229c-0.383-0.517-0.672-1.112-0.867-1.784
			c-0.195-0.671-0.292-1.37-0.292-2.095c0-0.699,0.097-1.374,0.292-2.026c0.194-0.652,0.484-1.226,0.867-1.723
			c0.383-0.496,0.863-0.897,1.441-1.199c0.577-0.301,1.249-0.453,2.015-0.453c0.618,0,1.206,0.131,1.763,0.393
			c0.557,0.262,0.997,0.648,1.32,1.158h0.04v-5.239h2.861V310h-2.721v-1.33H368.54z M368.419,303.521
			c-0.081-0.396-0.219-0.747-0.413-1.048c-0.195-0.303-0.447-0.548-0.756-0.736c-0.309-0.187-0.699-0.281-1.169-0.281
			c-0.471,0-0.867,0.094-1.189,0.281c-0.323,0.189-0.581,0.437-0.775,0.747c-0.195,0.309-0.336,0.662-0.423,1.057
			c-0.088,0.396-0.131,0.809-0.131,1.239c0,0.404,0.047,0.807,0.141,1.21c0.094,0.403,0.244,0.762,0.453,1.078
			c0.208,0.317,0.47,0.572,0.786,0.766c0.316,0.195,0.695,0.292,1.138,0.292c0.47,0,0.863-0.094,1.179-0.282
			c0.316-0.187,0.567-0.44,0.756-0.756c0.188-0.316,0.322-0.675,0.403-1.078c0.081-0.403,0.121-0.82,0.121-1.249
			S368.5,303.918,368.419,303.521z"/>
		<path fill="#306EB5" d="M376.52,307.501c0.43,0.417,1.048,0.625,1.854,0.625c0.578,0,1.075-0.144,1.491-0.434
			c0.416-0.289,0.672-0.594,0.766-0.916h2.519c-0.403,1.249-1.021,2.142-1.854,2.68c-0.833,0.538-1.841,0.806-3.023,0.806
			c-0.82,0-1.559-0.131-2.217-0.393c-0.658-0.262-1.215-0.635-1.672-1.119c-0.457-0.484-0.809-1.061-1.058-1.733
			c-0.248-0.671-0.373-1.41-0.373-2.217c0-0.779,0.128-1.505,0.383-2.176c0.255-0.672,0.618-1.253,1.089-1.743
			c0.47-0.49,1.031-0.876,1.682-1.158c0.652-0.282,1.373-0.423,2.166-0.423c0.887,0,1.659,0.171,2.317,0.513
			c0.658,0.343,1.199,0.803,1.622,1.38c0.423,0.579,0.729,1.237,0.917,1.976c0.188,0.739,0.255,1.511,0.201,2.317h-7.517
			C375.855,306.413,376.09,307.085,376.52,307.501z M379.754,302.019c-0.343-0.376-0.863-0.563-1.561-0.563
			c-0.457,0-0.836,0.077-1.139,0.231c-0.302,0.155-0.544,0.346-0.725,0.575c-0.181,0.228-0.309,0.471-0.382,0.725
			c-0.074,0.255-0.118,0.484-0.132,0.686h4.655C380.335,302.947,380.097,302.396,379.754,302.019z"/>
		<path fill="#306EB5" d="M384.903,302.785c0.04-0.671,0.208-1.229,0.504-1.672c0.296-0.444,0.672-0.799,1.129-1.069
			c0.457-0.268,0.97-0.461,1.541-0.575s1.146-0.171,1.723-0.171c0.524,0,1.054,0.037,1.592,0.11
			c0.538,0.074,1.028,0.218,1.471,0.434s0.806,0.513,1.088,0.897c0.282,0.382,0.423,0.89,0.423,1.521v5.421
			c0,0.47,0.027,0.92,0.081,1.35c0.053,0.43,0.148,0.753,0.282,0.967h-2.902c-0.054-0.162-0.098-0.326-0.131-0.494
			c-0.033-0.168-0.057-0.339-0.071-0.513c-0.457,0.47-0.994,0.799-1.612,0.987c-0.618,0.189-1.249,0.282-1.894,0.282
			c-0.497,0-0.961-0.06-1.391-0.181c-0.43-0.121-0.806-0.309-1.128-0.564c-0.323-0.255-0.575-0.577-0.756-0.967
			c-0.181-0.39-0.272-0.853-0.272-1.391c0-0.591,0.104-1.078,0.312-1.461c0.208-0.382,0.477-0.688,0.806-0.917
			c0.329-0.227,0.706-0.399,1.128-0.513c0.423-0.114,0.85-0.205,1.28-0.272s0.853-0.121,1.27-0.162
			c0.416-0.04,0.786-0.1,1.108-0.181c0.322-0.081,0.577-0.199,0.765-0.353c0.188-0.154,0.275-0.38,0.262-0.675
			c0-0.309-0.051-0.554-0.151-0.736c-0.101-0.181-0.235-0.322-0.403-0.423c-0.168-0.1-0.363-0.167-0.584-0.201
			c-0.222-0.033-0.461-0.05-0.716-0.05c-0.564,0-1.007,0.121-1.33,0.363c-0.323,0.241-0.511,0.644-0.564,1.208H384.903z
			 M391.512,304.902c-0.121,0.108-0.272,0.191-0.453,0.251c-0.182,0.06-0.377,0.11-0.584,0.151c-0.208,0.04-0.427,0.074-0.655,0.1
			c-0.229,0.028-0.457,0.062-0.685,0.101c-0.216,0.04-0.427,0.094-0.635,0.162c-0.208,0.067-0.39,0.158-0.544,0.272
			c-0.155,0.114-0.279,0.258-0.373,0.432c-0.094,0.176-0.141,0.396-0.141,0.666c0,0.255,0.047,0.471,0.141,0.645
			c0.094,0.174,0.221,0.312,0.382,0.413c0.162,0.1,0.35,0.171,0.564,0.21c0.215,0.041,0.436,0.062,0.665,0.062
			c0.564,0,1.001-0.095,1.31-0.282c0.309-0.189,0.537-0.413,0.685-0.676c0.148-0.262,0.239-0.526,0.272-0.795
			c0.033-0.268,0.051-0.484,0.051-0.645V304.902z"/>
		<path fill="#306EB5" d="M398.998,307.41c0.128,0.222,0.292,0.404,0.494,0.545c0.201,0.141,0.433,0.245,0.695,0.312
			c0.262,0.068,0.534,0.101,0.817,0.101c0.201,0,0.413-0.024,0.635-0.071c0.221-0.047,0.423-0.122,0.604-0.222
			c0.182-0.101,0.332-0.235,0.453-0.403c0.121-0.168,0.182-0.38,0.182-0.635c0-0.43-0.286-0.753-0.857-0.967
			c-0.571-0.216-1.367-0.43-2.387-0.645c-0.417-0.094-0.824-0.204-1.219-0.332c-0.396-0.127-0.749-0.295-1.058-0.504
			c-0.309-0.208-0.557-0.47-0.745-0.785c-0.189-0.316-0.282-0.702-0.282-1.16c0-0.671,0.131-1.221,0.393-1.652
			c0.262-0.43,0.607-0.768,1.038-1.017c0.43-0.249,0.913-0.423,1.451-0.523c0.537-0.101,1.088-0.151,1.652-0.151
			c0.564,0,1.112,0.054,1.642,0.16c0.531,0.108,1.004,0.29,1.421,0.545s0.763,0.594,1.038,1.017s0.44,0.957,0.494,1.602h-2.72
			c-0.04-0.552-0.249-0.924-0.625-1.119c-0.377-0.195-0.82-0.293-1.33-0.293c-0.161,0-0.335,0.01-0.524,0.031
			c-0.188,0.019-0.359,0.063-0.514,0.131c-0.155,0.067-0.285,0.164-0.393,0.292c-0.108,0.127-0.162,0.299-0.162,0.513
			c0,0.255,0.094,0.463,0.282,0.625c0.188,0.162,0.434,0.292,0.736,0.393c0.302,0.101,0.648,0.192,1.038,0.272
			c0.389,0.081,0.786,0.168,1.189,0.263c0.416,0.094,0.823,0.208,1.219,0.342c0.396,0.133,0.749,0.312,1.058,0.534
			c0.309,0.222,0.557,0.498,0.745,0.826c0.188,0.33,0.282,0.735,0.282,1.219c0,0.685-0.138,1.26-0.413,1.723
			c-0.276,0.464-0.635,0.836-1.078,1.119s-0.951,0.481-1.521,0.595c-0.571,0.114-1.152,0.171-1.743,0.171
			c-0.604,0-1.196-0.06-1.773-0.181c-0.578-0.121-1.092-0.323-1.542-0.604c-0.45-0.282-0.819-0.656-1.108-1.119
			c-0.289-0.464-0.446-1.044-0.473-1.743h2.72C398.807,306.923,398.871,307.189,398.998,307.41z"/>
	</g>
	<g>
		<path fill="#306EB5" d="M546.315,295.611c0.927,0,1.79,0.148,2.59,0.444c0.799,0.295,1.491,0.739,2.076,1.329
			c0.584,0.591,1.04,1.33,1.37,2.217c0.328,0.888,0.494,1.928,0.494,3.124c0,1.048-0.135,2.015-0.403,2.902
			c-0.269,0.886-0.676,1.652-1.22,2.298s-1.223,1.152-2.035,1.521c-0.813,0.369-1.77,0.554-2.872,0.554h-6.206v-14.388H546.315z
			 M546.093,307.339c0.457,0,0.901-0.073,1.33-0.221s0.813-0.394,1.148-0.736c0.336-0.342,0.606-0.789,0.807-1.339
			c0.201-0.552,0.302-1.223,0.302-2.015c0-0.726-0.071-1.38-0.21-1.965c-0.141-0.584-0.373-1.084-0.695-1.501
			c-0.323-0.417-0.749-0.735-1.28-0.957c-0.531-0.222-1.185-0.332-1.965-0.332h-2.257v9.067H546.093z"/>
		<path fill="#306EB5" d="M557.802,307.501c0.43,0.417,1.048,0.625,1.854,0.625c0.577,0,1.075-0.144,1.492-0.434
			c0.416-0.289,0.671-0.594,0.766-0.916h2.518c-0.403,1.249-1.021,2.142-1.854,2.68c-0.834,0.538-1.841,0.806-3.022,0.806
			c-0.82,0-1.559-0.131-2.217-0.393c-0.659-0.262-1.216-0.635-1.673-1.119c-0.457-0.484-0.809-1.061-1.058-1.733
			c-0.249-0.671-0.372-1.41-0.372-2.217c0-0.779,0.127-1.505,0.382-2.176c0.255-0.672,0.618-1.253,1.088-1.743
			c0.471-0.49,1.031-0.876,1.683-1.158s1.374-0.423,2.167-0.423c0.886,0,1.659,0.171,2.317,0.513
			c0.658,0.343,1.199,0.803,1.623,1.38c0.423,0.579,0.729,1.237,0.916,1.976c0.189,0.739,0.255,1.511,0.201,2.317h-7.516
			C557.137,306.413,557.372,307.085,557.802,307.501z M561.036,302.019c-0.343-0.376-0.863-0.563-1.561-0.563
			c-0.457,0-0.836,0.077-1.139,0.231c-0.301,0.155-0.544,0.346-0.725,0.575c-0.182,0.228-0.309,0.471-0.384,0.725
			c-0.073,0.255-0.118,0.484-0.131,0.686h4.655C561.617,302.947,561.378,302.396,561.036,302.019z"/>
		<path fill="#306EB5" d="M568.885,310l-3.566-10.418h3.002l2.196,7.113h0.041l2.196-7.113h2.841L572.069,310H568.885z"/>
		<path fill="#306EB5" d="M579.847,307.501c0.43,0.417,1.048,0.625,1.854,0.625c0.577,0,1.075-0.144,1.492-0.434
			c0.416-0.289,0.671-0.594,0.766-0.916h2.518c-0.403,1.249-1.021,2.142-1.854,2.68c-0.834,0.538-1.841,0.806-3.022,0.806
			c-0.82,0-1.559-0.131-2.217-0.393c-0.659-0.262-1.216-0.635-1.673-1.119c-0.457-0.484-0.809-1.061-1.058-1.733
			c-0.249-0.671-0.372-1.41-0.372-2.217c0-0.779,0.127-1.505,0.382-2.176c0.255-0.672,0.618-1.253,1.088-1.743
			c0.471-0.49,1.031-0.876,1.683-1.158s1.374-0.423,2.167-0.423c0.886,0,1.659,0.171,2.317,0.513
			c0.658,0.343,1.199,0.803,1.623,1.38c0.423,0.579,0.729,1.237,0.916,1.976c0.189,0.739,0.255,1.511,0.201,2.317h-7.516
			C579.182,306.413,579.417,307.085,579.847,307.501z M583.081,302.019c-0.343-0.376-0.863-0.563-1.561-0.563
			c-0.457,0-0.836,0.077-1.139,0.231c-0.301,0.155-0.544,0.346-0.725,0.575c-0.182,0.228-0.309,0.471-0.384,0.725
			c-0.073,0.255-0.118,0.484-0.131,0.686h4.655C583.662,302.947,583.424,302.396,583.081,302.019z"/>
		<path fill="#306EB5" d="M591.292,295.611V310h-2.862v-14.388H591.292z"/>
		<path fill="#306EB5" d="M593.609,302.534c0.255-0.679,0.618-1.256,1.089-1.733c0.47-0.477,1.034-0.847,1.692-1.108
			s1.397-0.393,2.217-0.393c0.82,0,1.562,0.131,2.227,0.393c0.664,0.262,1.233,0.631,1.702,1.108
			c0.471,0.477,0.833,1.054,1.089,1.733c0.254,0.679,0.382,1.434,0.382,2.267c0,0.834-0.128,1.586-0.382,2.258
			c-0.257,0.671-0.618,1.246-1.089,1.723c-0.469,0.476-1.038,0.843-1.702,1.098c-0.665,0.255-1.407,0.382-2.227,0.382
			c-0.82,0-1.559-0.127-2.217-0.382s-1.223-0.622-1.692-1.098c-0.471-0.477-0.834-1.052-1.089-1.723
			c-0.255-0.672-0.382-1.424-0.382-2.258C593.227,303.968,593.354,303.212,593.609,302.534z M596.209,306.02
			c0.081,0.396,0.218,0.752,0.413,1.067s0.453,0.568,0.776,0.756c0.322,0.189,0.725,0.282,1.208,0.282
			c0.484,0,0.89-0.094,1.219-0.282c0.33-0.187,0.591-0.44,0.786-0.756c0.195-0.316,0.332-0.671,0.413-1.067
			c0.081-0.396,0.121-0.803,0.121-1.22c0-0.416-0.04-0.826-0.121-1.229c-0.081-0.403-0.218-0.759-0.413-1.069
			c-0.195-0.308-0.457-0.561-0.786-0.756c-0.328-0.194-0.735-0.291-1.219-0.291c-0.484,0-0.886,0.098-1.208,0.291
			c-0.323,0.195-0.581,0.448-0.776,0.756c-0.195,0.309-0.332,0.666-0.413,1.069s-0.121,0.813-0.121,1.229
			C596.089,305.217,596.129,305.624,596.209,306.02z"/>
		<path fill="#306EB5" d="M608.582,299.582v1.329h0.04c0.35-0.563,0.793-0.974,1.33-1.229c0.537-0.255,1.129-0.382,1.773-0.382
			c0.82,0,1.525,0.154,2.117,0.463s1.081,0.718,1.471,1.229c0.389,0.511,0.677,1.106,0.866,1.783
			c0.189,0.679,0.282,1.388,0.282,2.127c0,0.698-0.094,1.37-0.282,2.015c-0.189,0.644-0.473,1.216-0.857,1.713
			c-0.382,0.496-0.859,0.893-1.43,1.189c-0.571,0.295-1.239,0.443-2.005,0.443c-0.645,0-1.239-0.131-1.783-0.393
			c-0.544-0.262-0.992-0.648-1.341-1.158h-0.04v4.936h-2.862v-14.065H608.582z M612.3,307.843c0.316-0.187,0.571-0.434,0.766-0.735
			c0.195-0.303,0.332-0.656,0.413-1.058s0.121-0.812,0.121-1.229s-0.044-0.826-0.131-1.229c-0.087-0.403-0.231-0.763-0.432-1.079
			c-0.203-0.316-0.461-0.571-0.776-0.766c-0.316-0.194-0.703-0.291-1.16-0.291c-0.47,0-0.863,0.098-1.178,0.291
			c-0.317,0.195-0.572,0.448-0.766,0.756c-0.195,0.309-0.334,0.666-0.413,1.069c-0.081,0.403-0.122,0.82-0.122,1.249
			c0,0.417,0.044,0.826,0.131,1.229s0.228,0.756,0.423,1.058c0.195,0.301,0.454,0.548,0.776,0.735
			c0.322,0.189,0.712,0.282,1.169,0.282C611.592,308.125,611.984,308.032,612.3,307.843z"/>
		<path fill="#306EB5" d="M630.194,309.838c-0.652,0.282-1.387,0.423-2.206,0.423c-0.644,0-1.252-0.094-1.823-0.282
			c-0.572-0.187-1.065-0.466-1.482-0.836c-0.417-0.369-0.745-0.818-0.988-1.35c-0.241-0.531-0.362-1.139-0.362-1.824
			c0-0.511,0.087-0.978,0.262-1.4c0.174-0.423,0.413-0.807,0.716-1.149c0.301-0.343,0.648-0.648,1.038-0.917
			c0.389-0.268,0.792-0.503,1.208-0.704c-0.39-0.471-0.716-0.94-0.978-1.411c-0.262-0.47-0.393-1.021-0.393-1.652
			c0-0.496,0.104-0.947,0.312-1.351c0.209-0.403,0.487-0.748,0.836-1.038c0.349-0.289,0.749-0.509,1.199-0.665
			c0.45-0.154,0.917-0.232,1.401-0.232c0.55,0,1.065,0.074,1.541,0.222c0.477,0.149,0.894,0.367,1.25,0.656
			c0.357,0.289,0.639,0.648,0.847,1.078c0.208,0.43,0.313,0.927,0.313,1.492c0,0.845-0.246,1.559-0.736,2.136
			c-0.49,0.577-1.098,1.061-1.823,1.451l1.854,2.277c0.148-0.269,0.262-0.548,0.343-0.836s0.141-0.581,0.181-0.876h2.478
			c-0.067,0.644-0.214,1.269-0.443,1.873c-0.228,0.605-0.544,1.162-0.948,1.673l2.922,3.406h-3.506l-1.169-1.43
			C631.46,309.134,630.846,309.556,630.194,309.838z M627.323,304.034c-0.242,0.149-0.457,0.323-0.645,0.525
			c-0.187,0.201-0.339,0.423-0.453,0.664c-0.114,0.242-0.172,0.511-0.172,0.806c0,0.255,0.058,0.502,0.172,0.736
			c0.114,0.235,0.266,0.436,0.453,0.604c0.189,0.168,0.407,0.303,0.656,0.403c0.248,0.101,0.507,0.151,0.776,0.151
			c0.509,0,0.957-0.118,1.339-0.353c0.384-0.235,0.743-0.54,1.079-0.917l-2.459-3.002
			C627.813,303.76,627.564,303.887,627.323,304.034z M629.993,297.768c-0.262-0.268-0.567-0.403-0.916-0.403
			c-0.35,0-0.652,0.118-0.907,0.353c-0.255,0.235-0.384,0.54-0.384,0.916c0,0.458,0.122,0.847,0.363,1.169
			c0.242,0.323,0.496,0.653,0.766,0.988c0.403-0.255,0.749-0.53,1.038-0.826c0.289-0.295,0.434-0.706,0.434-1.229
			C630.387,298.359,630.256,298.037,629.993,297.768z"/>
		<path fill="#306EB5" d="M642.355,298.272v-2.661h11.789v2.661h-4.313V310h-3.163v-11.728H642.355z"/>
		<path fill="#306EB5" d="M656.32,307.501c0.43,0.417,1.048,0.625,1.854,0.625c0.577,0,1.075-0.144,1.492-0.434
			c0.416-0.289,0.671-0.594,0.766-0.916h2.518c-0.403,1.249-1.021,2.142-1.854,2.68c-0.834,0.538-1.841,0.806-3.022,0.806
			c-0.82,0-1.559-0.131-2.217-0.393c-0.659-0.262-1.216-0.635-1.673-1.119c-0.457-0.484-0.809-1.061-1.058-1.733
			c-0.249-0.671-0.372-1.41-0.372-2.217c0-0.779,0.127-1.505,0.382-2.176c0.255-0.672,0.618-1.253,1.088-1.743
			c0.471-0.49,1.031-0.876,1.683-1.158s1.374-0.423,2.167-0.423c0.886,0,1.659,0.171,2.317,0.513
			c0.658,0.343,1.199,0.803,1.623,1.38c0.423,0.579,0.729,1.237,0.916,1.976c0.189,0.739,0.255,1.511,0.201,2.317h-7.516
			C655.656,306.413,655.891,307.085,656.32,307.501z M659.554,302.019c-0.343-0.376-0.863-0.563-1.561-0.563
			c-0.457,0-0.836,0.077-1.139,0.231c-0.302,0.155-0.544,0.346-0.725,0.575c-0.182,0.228-0.309,0.471-0.384,0.725
			c-0.073,0.255-0.118,0.484-0.131,0.686h4.655C660.135,302.947,659.897,302.396,659.554,302.019z"/>
		<path fill="#306EB5" d="M667.232,307.41c0.128,0.222,0.292,0.404,0.494,0.545s0.434,0.245,0.695,0.312
			c0.262,0.068,0.535,0.101,0.816,0.101c0.203,0,0.413-0.024,0.635-0.071c0.222-0.047,0.423-0.122,0.605-0.222
			c0.181-0.101,0.332-0.235,0.453-0.403c0.121-0.168,0.181-0.38,0.181-0.635c0-0.43-0.285-0.753-0.856-0.967
			c-0.572-0.216-1.367-0.43-2.389-0.645c-0.416-0.094-0.822-0.204-1.219-0.332c-0.396-0.127-0.749-0.295-1.058-0.504
			c-0.309-0.208-0.557-0.47-0.745-0.785c-0.189-0.316-0.282-0.702-0.282-1.16c0-0.671,0.131-1.221,0.393-1.652
			c0.263-0.43,0.608-0.768,1.038-1.017s0.913-0.423,1.451-0.523c0.537-0.101,1.089-0.151,1.652-0.151
			c0.564,0,1.112,0.054,1.643,0.16c0.53,0.108,1.003,0.29,1.42,0.545c0.417,0.255,0.762,0.594,1.038,1.017s0.44,0.957,0.494,1.602
			h-2.721c-0.04-0.552-0.249-0.924-0.625-1.119c-0.376-0.195-0.818-0.293-1.329-0.293c-0.162,0-0.336,0.01-0.525,0.031
			c-0.189,0.019-0.359,0.063-0.513,0.131c-0.155,0.067-0.286,0.164-0.394,0.292c-0.108,0.127-0.16,0.299-0.16,0.513
			c0,0.255,0.094,0.463,0.282,0.625c0.187,0.162,0.432,0.292,0.735,0.393c0.303,0.101,0.648,0.192,1.038,0.272
			c0.39,0.081,0.786,0.168,1.189,0.263c0.416,0.094,0.822,0.208,1.219,0.342c0.396,0.133,0.749,0.312,1.058,0.534
			c0.309,0.222,0.557,0.498,0.745,0.826c0.189,0.33,0.282,0.735,0.282,1.219c0,0.685-0.139,1.26-0.413,1.723
			c-0.276,0.464-0.635,0.836-1.078,1.119c-0.444,0.282-0.951,0.481-1.521,0.595c-0.572,0.114-1.153,0.171-1.743,0.171
			c-0.606,0-1.196-0.06-1.774-0.181c-0.577-0.121-1.092-0.323-1.541-0.604c-0.45-0.282-0.82-0.656-1.108-1.119
			c-0.29-0.464-0.448-1.044-0.473-1.743h2.72C667.041,306.923,667.105,307.189,667.232,307.41z"/>
		<path fill="#306EB5" d="M681.367,299.582v1.914h-2.095v5.158c0,0.484,0.081,0.807,0.241,0.967
			c0.162,0.162,0.484,0.242,0.967,0.242c0.162,0,0.316-0.006,0.464-0.021c0.148-0.013,0.289-0.033,0.422-0.06V310
			c-0.241,0.04-0.511,0.067-0.806,0.081c-0.295,0.013-0.584,0.021-0.866,0.021c-0.444,0-0.863-0.031-1.26-0.091
			c-0.396-0.06-0.745-0.178-1.048-0.353c-0.303-0.174-0.541-0.423-0.716-0.745c-0.174-0.323-0.262-0.745-0.262-1.27v-6.146h-1.733
			v-1.914h1.733v-3.124h2.862v3.124H681.367z"/>
	</g>
	<g>
		<path fill="#306EB5" d="M805.262,295.611c0.685,0,1.31,0.06,1.874,0.181c0.564,0.122,1.048,0.319,1.451,0.595
			s0.716,0.641,0.936,1.098c0.222,0.457,0.334,1.021,0.334,1.692c0,0.726-0.166,1.33-0.494,1.814
			c-0.33,0.484-0.817,0.88-1.461,1.189c0.886,0.255,1.548,0.702,1.985,1.341c0.436,0.638,0.656,1.407,0.656,2.307
			c0,0.726-0.141,1.355-0.423,1.884c-0.282,0.531-0.662,0.965-1.139,1.3c-0.477,0.336-1.021,0.585-1.632,0.745
			c-0.612,0.162-1.239,0.242-1.885,0.242h-6.972v-14.388H805.262z M804.859,301.435c0.564,0,1.028-0.135,1.391-0.403
			c0.362-0.269,0.544-0.706,0.544-1.31c0-0.336-0.06-0.612-0.182-0.826c-0.121-0.216-0.281-0.384-0.484-0.504
			c-0.201-0.121-0.432-0.205-0.695-0.251c-0.262-0.047-0.534-0.071-0.816-0.071h-2.962v3.365H804.859z M805.04,307.542
			c0.309,0,0.604-0.031,0.886-0.091s0.531-0.162,0.747-0.303c0.214-0.141,0.385-0.332,0.513-0.573
			c0.128-0.242,0.191-0.552,0.191-0.927c0-0.739-0.208-1.266-0.625-1.582c-0.416-0.316-0.967-0.473-1.652-0.473h-3.446v3.95H805.04z
			"/>
		<path fill="#306EB5" d="M815.318,295.611V310h-2.862v-14.388H815.318z"/>
		<path fill="#306EB5" d="M824.626,310v-1.451h-0.06c-0.363,0.604-0.833,1.042-1.41,1.31c-0.579,0.268-1.17,0.403-1.774,0.403
			c-0.766,0-1.393-0.1-1.884-0.301c-0.49-0.203-0.876-0.487-1.158-0.857s-0.48-0.82-0.594-1.351
			c-0.114-0.53-0.172-1.117-0.172-1.763v-6.408h2.862v5.884c0,0.859,0.133,1.501,0.403,1.924c0.268,0.423,0.745,0.635,1.43,0.635
			c0.78,0,1.343-0.232,1.693-0.695c0.349-0.464,0.523-1.226,0.523-2.287v-5.461h2.862V310H824.626z"/>
		<path fill="#306EB5" d="M832.586,307.501c0.43,0.417,1.048,0.625,1.854,0.625c0.577,0,1.075-0.144,1.492-0.434
			c0.416-0.289,0.671-0.594,0.766-0.916h2.518c-0.403,1.249-1.021,2.142-1.854,2.68c-0.834,0.538-1.841,0.806-3.022,0.806
			c-0.82,0-1.559-0.131-2.217-0.393c-0.659-0.262-1.216-0.635-1.673-1.119c-0.457-0.484-0.809-1.061-1.058-1.733
			c-0.249-0.671-0.372-1.41-0.372-2.217c0-0.779,0.127-1.505,0.382-2.176c0.255-0.672,0.618-1.253,1.088-1.743
			c0.471-0.49,1.031-0.876,1.683-1.158s1.374-0.423,2.167-0.423c0.886,0,1.659,0.171,2.317,0.513
			c0.658,0.343,1.199,0.803,1.623,1.38c0.423,0.579,0.729,1.237,0.916,1.976c0.189,0.739,0.255,1.511,0.201,2.317h-7.516
			C831.922,306.413,832.156,307.085,832.586,307.501z M835.82,302.019c-0.343-0.376-0.863-0.563-1.561-0.563
			c-0.457,0-0.836,0.077-1.139,0.231c-0.301,0.155-0.544,0.346-0.725,0.575c-0.182,0.228-0.309,0.471-0.384,0.725
			c-0.073,0.255-0.118,0.484-0.131,0.686h4.655C836.401,302.947,836.163,302.396,835.82,302.019z"/>
		<path fill="#306EB5" d="M843.811,299.582v1.329h0.04c0.35-0.563,0.793-0.974,1.33-1.229c0.538-0.255,1.129-0.382,1.773-0.382
			c0.82,0,1.525,0.154,2.117,0.463c0.591,0.309,1.081,0.718,1.471,1.229c0.389,0.511,0.677,1.106,0.866,1.783
			c0.189,0.679,0.282,1.388,0.282,2.127c0,0.698-0.094,1.37-0.282,2.015c-0.189,0.644-0.473,1.216-0.857,1.713
			c-0.382,0.496-0.859,0.893-1.43,1.189c-0.571,0.295-1.239,0.443-2.005,0.443c-0.645,0-1.239-0.131-1.783-0.393
			c-0.544-0.262-0.992-0.648-1.341-1.158h-0.04v4.936h-2.862v-14.065H843.811z M847.528,307.843
			c0.316-0.187,0.571-0.434,0.766-0.735c0.195-0.303,0.332-0.656,0.413-1.058c0.081-0.403,0.121-0.812,0.121-1.229
			s-0.044-0.826-0.131-1.229c-0.087-0.403-0.231-0.763-0.432-1.079c-0.203-0.316-0.461-0.571-0.776-0.766
			c-0.316-0.194-0.703-0.291-1.16-0.291c-0.469,0-0.863,0.098-1.178,0.291c-0.317,0.195-0.572,0.448-0.766,0.756
			c-0.195,0.309-0.333,0.666-0.413,1.069c-0.081,0.403-0.122,0.82-0.122,1.249c0,0.417,0.044,0.826,0.131,1.229
			c0.087,0.403,0.228,0.756,0.423,1.058c0.195,0.301,0.454,0.548,0.776,0.735c0.322,0.189,0.712,0.282,1.169,0.282
			C846.82,308.125,847.213,308.032,847.528,307.843z"/>
		<path fill="#306EB5" d="M856.123,299.582v1.935h0.04c0.135-0.323,0.316-0.622,0.544-0.897c0.228-0.276,0.491-0.511,0.786-0.706
			c0.295-0.195,0.612-0.346,0.947-0.454c0.336-0.106,0.685-0.16,1.048-0.16c0.189,0,0.396,0.033,0.625,0.1v2.661
			c-0.135-0.027-0.295-0.05-0.484-0.071c-0.189-0.021-0.369-0.031-0.544-0.031c-0.523,0-0.967,0.089-1.33,0.262
			c-0.362,0.176-0.654,0.414-0.876,0.716c-0.222,0.303-0.38,0.656-0.473,1.058c-0.095,0.403-0.141,0.839-0.141,1.31V310h-2.862
			v-10.418H856.123z"/>
		<path fill="#306EB5" d="M861.321,297.969v-2.358h2.862v2.358H861.321z M864.183,299.582V310h-2.862v-10.418H864.183z"/>
		<path fill="#306EB5" d="M869.161,299.582v1.451h0.06c0.363-0.605,0.833-1.044,1.411-1.32c0.577-0.276,1.169-0.413,1.773-0.413
			c0.766,0,1.393,0.104,1.885,0.312c0.49,0.209,0.876,0.498,1.158,0.867s0.48,0.82,0.594,1.35c0.114,0.531,0.172,1.119,0.172,1.764
			V310h-2.862v-5.884c0-0.859-0.135-1.501-0.403-1.924c-0.268-0.423-0.745-0.635-1.43-0.635c-0.78,0-1.343,0.232-1.693,0.695
			c-0.349,0.463-0.523,1.226-0.523,2.287V310h-2.862v-10.418H869.161z"/>
		<path fill="#306EB5" d="M884.112,299.582v1.914h-2.095v5.158c0,0.484,0.081,0.807,0.241,0.967
			c0.162,0.162,0.484,0.242,0.967,0.242c0.162,0,0.316-0.006,0.464-0.021c0.148-0.013,0.289-0.033,0.422-0.06V310
			c-0.241,0.04-0.511,0.067-0.806,0.081c-0.295,0.013-0.584,0.021-0.866,0.021c-0.444,0-0.863-0.031-1.26-0.091
			c-0.396-0.06-0.745-0.178-1.048-0.353c-0.303-0.174-0.541-0.423-0.716-0.745c-0.174-0.323-0.262-0.745-0.262-1.27v-6.146h-1.733
			v-1.914h1.733v-3.124h2.862v3.124H884.112z"/>
	</g>
	<g>
		<defs>
			<rect id="SVGID_3_" x="31.777" y="46.055" width="960.445" height="278.537"/>
		</defs>
		<clipPath id="SVGID_4_">
			<use xlink:href="#SVGID_3_"  overflow="visible"/>
		</clipPath>
		<g clip-path="url(#SVGID_4_)">
			<path fill="#8AA7D7" d="M90.28,101.332c-0.599,0-1.106,0.507-1.106,1.106v30.975c0,0.599,0.507,1.106,1.106,1.106h50.338
				c0.596,0,1.106-0.507,1.106-1.106v-30.975c0-0.599-0.51-1.106-1.106-1.106h-4.545l-5.998-5.756h-9.894l-5.995,5.756H96.951
				v-2.422h-1.729v2.422H90.28z M124.949,103.528c7.585,0,13.83,6.245,13.83,13.83c0,7.582-6.245,13.827-13.83,13.827
				c-7.438,0-13.827-6.374-13.827-13.827C111.122,109.773,117.367,103.528,124.949,103.528 M124.949,109.061
				c-4.55,0-8.297,3.744-8.297,8.297c0,4.55,3.746,8.294,8.297,8.294c4.553,0,8.297-3.744,8.297-8.294
				C133.246,112.805,129.502,109.061,124.949,109.061 M89.962,95.807c1.582-3.673,10.745-3.473,12.248-0.008h9.771l5.995-5.756
				h14.305l5.995,5.756c4.317,0,8.977,1.159,8.977,6.639v30.975c0,3.633-3.006,6.639-6.636,6.639H90.28
				c-3.633,0-6.636-3.006-6.636-6.639v-30.975C83.644,98.928,86.46,95.975,89.962,95.807"/>
		</g>
		<g clip-path="url(#SVGID_4_)">
			<path fill="#A9B438" d="M968.149,287.301H41.364c-4.639,0-8.401-3.76-8.401-8.4s3.761-8.4,8.401-8.4h926.785
				c4.64,0,8.4,3.76,8.4,8.4S972.789,287.301,968.149,287.301z"/>
		</g>
		<g clip-path="url(#SVGID_4_)">
			<path fill="#A9B438" d="M956.378,311.131l-9.166-9.838l24.089-22.387l-24.089-22.392l9.166-9.838l34.662,32.23L956.378,311.131z
				 M956.715,301.634l0.004,0.004l15.725-14.619L956.715,301.634z M956.715,256.173l17.658,16.413l-17.654-16.416L956.715,256.173z"
				/>
		</g>
		<g clip-path="url(#SVGID_4_)">
			<path fill="#FFFFFF" d="M570.948,204.833c0,7.059-5.727,12.789-12.789,12.789c-7.067,0-12.795-5.73-12.795-12.789
				c0-7.067,5.727-12.789,12.795-12.789C565.22,192.044,570.948,197.766,570.948,204.833"/>
		</g>
		<g clip-path="url(#SVGID_4_)">
			<path fill="#276FB6" d="M558.158,220.585c-8.689,0-15.758-7.066-15.758-15.752s7.07-15.753,15.758-15.753
				c8.686,0,15.753,7.067,15.753,15.753S566.844,220.585,558.158,220.585z M558.158,195.007c-5.421,0-9.832,4.408-9.832,9.826
				c0,5.417,4.41,9.825,9.832,9.825c5.419,0,9.826-4.408,9.826-9.825C567.985,199.415,563.577,195.007,558.158,195.007z"/>
		</g>
		<g clip-path="url(#SVGID_4_)">
			<path fill="#FFFFFF" d="M532.47,257.742c0-19.179,11.594-30.594,25.897-30.594c14.305,0,25.899,11.415,25.899,30.594H532.47z"/>
		</g>
		<g clip-path="url(#SVGID_4_)">
			<path fill="#276FB6" d="M587.228,260.706h-57.722v-2.963c0-19.758,11.867-33.557,28.86-33.557
				c16.994,0,28.862,13.799,28.862,33.557V260.706z M535.536,254.779h45.664c-1.039-14.877-9.952-24.667-22.833-24.667
				C545.486,230.112,536.575,239.902,535.536,254.779z"/>
		</g>
		<g clip-path="url(#SVGID_4_)">
			<path fill="#FFFFFF" d="M540.857,234.972c4.834,5.257,7.837,13.01,7.837,22.77"/>
		</g>
		<g clip-path="url(#SVGID_4_)">
			<path fill="#276FB6" d="M551.658,257.742h-5.927c0-8.565-2.44-15.745-7.056-20.764l4.362-4.013
				C548.677,239.098,551.658,247.666,551.658,257.742z"/>
		</g>
		<g clip-path="url(#SVGID_4_)">
			<path fill="#FFFFFF" d="M568.244,257.742c0-9.584,2.903-17.237,7.587-22.492"/>
		</g>
		<g clip-path="url(#SVGID_4_)">
			<path fill="#276FB6" d="M571.207,257.742h-5.927c0-9.884,2.883-18.344,8.337-24.464l4.426,3.943
				C573.571,242.239,571.207,249.335,571.207,257.742z"/>
		</g>
		<g clip-path="url(#SVGID_4_)">
			<path fill="#FFFFFF" d="M622.743,204.833c0,7.059-5.73,12.789-12.795,12.789c-7.059,0-12.787-5.73-12.787-12.789
				c0-7.067,5.727-12.789,12.787-12.789C617.013,192.044,622.743,197.766,622.743,204.833"/>
		</g>
		<g clip-path="url(#SVGID_4_)">
			<path fill="#8AA7D7" d="M622.743,204.833c0,7.059-5.73,12.789-12.795,12.789c-7.059,0-12.787-5.73-12.787-12.789
				c0-7.067,5.727-12.789,12.787-12.789C617.013,192.044,622.743,197.766,622.743,204.833"/>
		</g>
		<g clip-path="url(#SVGID_4_)">
			<path fill="#276FB6" d="M609.949,220.585c-8.685,0-15.751-7.066-15.751-15.752s7.066-15.753,15.751-15.753
				c8.689,0,15.757,7.067,15.757,15.753S618.637,220.585,609.949,220.585z M609.949,195.007c-5.417,0-9.824,4.408-9.824,9.826
				c0,5.417,4.406,9.825,9.824,9.825c5.42,0,9.83-4.408,9.83-9.825C619.779,199.415,615.369,195.007,609.949,195.007z"/>
		</g>
		<g clip-path="url(#SVGID_4_)">
			<path fill="#8AA7D7" d="M584.267,257.742c0-19.179,11.594-30.594,25.899-30.594c14.303,0,25.897,11.415,25.897,30.594H584.267z"
				/>
		</g>
		<g clip-path="url(#SVGID_4_)">
			<path fill="#276FB6" d="M639.026,260.706h-57.722v-2.963c0-19.758,11.869-33.557,28.862-33.557
				c16.992,0,28.86,13.799,28.86,33.557V260.706z M587.334,254.779h45.664c-1.039-14.877-9.951-24.667-22.83-24.667
				C597.286,230.112,588.373,239.902,587.334,254.779z"/>
		</g>
		<g clip-path="url(#SVGID_4_)">
			<path fill="#FFFFFF" d="M592.65,234.972c4.834,5.257,7.842,13.01,7.842,22.77"/>
		</g>
		<g clip-path="url(#SVGID_4_)">
			<path fill="#276FB6" d="M603.456,257.742h-5.927c0-8.562-2.441-15.742-7.061-20.764l4.362-4.013
				C600.474,239.102,603.456,247.668,603.456,257.742z"/>
		</g>
		<g clip-path="url(#SVGID_4_)">
			<path fill="#FFFFFF" d="M620.046,257.742c0-9.584,2.898-17.237,7.587-22.492"/>
		</g>
		<g clip-path="url(#SVGID_4_)">
			<path fill="#276FB6" d="M623.009,257.742h-5.927c0-9.892,2.884-18.352,8.341-24.465l4.421,3.946
				C625.373,242.234,623.009,249.33,623.009,257.742z"/>
		</g>
		<g clip-path="url(#SVGID_4_)">
			<path fill="#FFFFFF" d="M674.54,204.833c0,7.059-5.725,12.789-12.789,12.789c-7.065,0-12.792-5.73-12.792-12.789
				c0-7.067,5.727-12.789,12.792-12.789C668.816,192.044,674.54,197.766,674.54,204.833"/>
		</g>
		<g clip-path="url(#SVGID_4_)">
			<path fill="#276FB6" d="M661.75,220.585c-8.687,0-15.754-7.066-15.754-15.752s7.067-15.753,15.754-15.753
				c8.686,0,15.753,7.067,15.753,15.753S670.437,220.585,661.75,220.585z M661.75,195.007c-5.419,0-9.828,4.408-9.828,9.826
				c0,5.417,4.409,9.825,9.828,9.825c5.419,0,9.826-4.408,9.826-9.825C671.577,199.415,667.169,195.007,661.75,195.007z"/>
		</g>
		<g clip-path="url(#SVGID_4_)">
			<path fill="#FFFFFF" d="M636.064,257.742c0-19.179,11.594-30.594,25.899-30.594c14.3,0,25.897,11.415,25.897,30.594H636.064z"/>
		</g>
		<g clip-path="url(#SVGID_4_)">
			<path fill="#276FB6" d="M690.823,260.706h-57.722v-2.963c0-19.758,11.869-33.557,28.862-33.557
				c16.992,0,28.86,13.799,28.86,33.557V260.706z M639.13,254.779h45.664c-1.039-14.877-9.951-24.667-22.831-24.667
				C649.083,230.112,640.169,239.902,639.13,254.779z"/>
		</g>
		<g clip-path="url(#SVGID_4_)">
			<path fill="#FFFFFF" d="M644.448,234.972c4.837,5.257,7.842,13.01,7.842,22.77"/>
		</g>
		<g clip-path="url(#SVGID_4_)">
			<path fill="#276FB6" d="M655.253,257.742h-5.927c0-8.564-2.441-15.744-7.059-20.764l4.362-4.013
				C652.27,239.099,655.253,247.667,655.253,257.742z"/>
		</g>
		<g clip-path="url(#SVGID_4_)">
			<path fill="#FFFFFF" d="M671.843,257.742c0-9.584,2.893-17.237,7.58-22.492"/>
		</g>
		<g clip-path="url(#SVGID_4_)">
			<path fill="#276FB6" d="M674.807,257.742h-5.927c0-9.896,2.881-18.355,8.331-24.465l4.423,3.946
				C677.167,242.229,674.807,249.326,674.807,257.742z"/>
		</g>
		<g clip-path="url(#SVGID_4_)">
			<path fill="#FFFFFF" d="M801.506,204.833c0,7.059-5.727,12.789-12.789,12.789c-7.067,0-12.795-5.73-12.795-12.789
				c0-7.067,5.727-12.789,12.795-12.789C795.778,192.044,801.506,197.766,801.506,204.833"/>
		</g>
		<g clip-path="url(#SVGID_4_)">
			<path fill="#276FB6" d="M788.716,220.585c-8.689,0-15.757-7.066-15.757-15.752s7.068-15.753,15.757-15.753
				c8.686,0,15.753,7.067,15.753,15.753S797.402,220.585,788.716,220.585z M788.716,195.007c-5.42,0-9.83,4.408-9.83,9.826
				c0,5.417,4.41,9.825,9.83,9.825c5.419,0,9.826-4.408,9.826-9.825C798.542,199.415,794.135,195.007,788.716,195.007z"/>
		</g>
		<g clip-path="url(#SVGID_4_)">
			<path fill="#FFFFFF" d="M763.028,257.742c0-19.179,11.594-30.594,25.897-30.594c14.305,0,25.899,11.415,25.899,30.594H763.028z"
				/>
		</g>
		<g clip-path="url(#SVGID_4_)">
			<path fill="#276FB6" d="M817.787,260.706h-57.723v-2.963c0-19.758,11.867-33.557,28.86-33.557
				c16.995,0,28.864,13.799,28.864,33.557V260.706z M766.093,254.779h45.665c-1.039-14.877-9.952-24.667-22.834-24.667
				C776.044,230.112,767.132,239.902,766.093,254.779z"/>
		</g>
		<g clip-path="url(#SVGID_4_)">
			<path fill="#FFFFFF" d="M771.416,234.972c4.834,5.257,7.837,13.01,7.837,22.77"/>
		</g>
		<g clip-path="url(#SVGID_4_)">
			<path fill="#276FB6" d="M782.216,257.742h-5.927c0-8.564-2.44-15.745-7.056-20.764l4.364-4.013
				C779.236,239.099,782.216,247.666,782.216,257.742z"/>
		</g>
		<g clip-path="url(#SVGID_4_)">
			<path fill="#FFFFFF" d="M798.802,257.742c0-9.584,2.903-17.237,7.587-22.492"/>
		</g>
		<g clip-path="url(#SVGID_4_)">
			<path fill="#276FB6" d="M801.765,257.742h-5.927c0-9.885,2.884-18.344,8.34-24.464l4.423,3.943
				C804.129,242.239,801.765,249.335,801.765,257.742z"/>
		</g>
		<g clip-path="url(#SVGID_4_)">
			<path fill="#FFFFFF" d="M853.301,204.833c0,7.059-5.73,12.789-12.795,12.789c-7.059,0-12.787-5.73-12.787-12.789
				c0-7.067,5.727-12.789,12.787-12.789C847.571,192.044,853.301,197.766,853.301,204.833"/>
		</g>
		<g clip-path="url(#SVGID_4_)">
			<path fill="#8AA7D7" d="M853.301,204.833c0,7.059-5.73,12.789-12.795,12.789c-7.059,0-12.787-5.73-12.787-12.789
				c0-7.067,5.727-12.789,12.787-12.789C847.571,192.044,853.301,197.766,853.301,204.833"/>
		</g>
		<g clip-path="url(#SVGID_4_)">
			<path fill="#276FB6" d="M840.506,220.585c-8.685,0-15.751-7.066-15.751-15.752s7.066-15.753,15.751-15.753
				c8.689,0,15.758,7.067,15.758,15.753S849.195,220.585,840.506,220.585z M840.506,195.007c-5.417,0-9.824,4.408-9.824,9.826
				c0,5.417,4.406,9.825,9.824,9.825c5.421,0,9.832-4.408,9.832-9.825C850.338,199.415,845.927,195.007,840.506,195.007z"/>
		</g>
		<g clip-path="url(#SVGID_4_)">
			<path fill="#8AA7D7" d="M814.825,257.742c0-19.179,11.594-30.594,25.899-30.594c14.303,0,25.897,11.415,25.897,30.594H814.825z"
				/>
		</g>
		<g clip-path="url(#SVGID_4_)">
			<path fill="#276FB6" d="M869.584,260.706h-57.722v-2.963c0-19.758,11.869-33.557,28.862-33.557
				c16.992,0,28.86,13.799,28.86,33.557V260.706z M817.891,254.779h45.664c-1.039-14.877-9.951-24.667-22.831-24.667
				C827.843,230.112,818.93,239.902,817.891,254.779z"/>
		</g>
		<g clip-path="url(#SVGID_4_)">
			<path fill="#FFFFFF" d="M823.208,234.972c4.834,5.257,7.842,13.01,7.842,22.77"/>
		</g>
		<g clip-path="url(#SVGID_4_)">
			<path fill="#276FB6" d="M834.014,257.742h-5.927c0-8.562-2.441-15.742-7.061-20.764l4.364-4.013
				C831.032,239.103,834.014,247.67,834.014,257.742z"/>
		</g>
		<g clip-path="url(#SVGID_4_)">
			<path fill="#FFFFFF" d="M850.604,257.742c0-9.584,2.898-17.237,7.587-22.492"/>
		</g>
		<g clip-path="url(#SVGID_4_)">
			<path fill="#276FB6" d="M853.567,257.742h-5.927c0-9.892,2.884-18.352,8.341-24.465l4.421,3.946
				C855.931,242.234,853.567,249.33,853.567,257.742z"/>
		</g>
		<g clip-path="url(#SVGID_4_)">
			<path fill="#FFFFFF" d="M905.098,204.833c0,7.059-5.725,12.789-12.789,12.789c-7.065,0-12.792-5.73-12.792-12.789
				c0-7.067,5.727-12.789,12.792-12.789C899.374,192.044,905.098,197.766,905.098,204.833"/>
		</g>
		<g clip-path="url(#SVGID_4_)">
			<path fill="#276FB6" d="M892.309,220.585c-8.687,0-15.756-7.066-15.756-15.752s7.068-15.753,15.756-15.753
				c8.686,0,15.752,7.067,15.752,15.753S900.995,220.585,892.309,220.585z M892.309,195.007c-5.42,0-9.829,4.408-9.829,9.826
				c0,5.417,4.409,9.825,9.829,9.825c5.417,0,9.825-4.408,9.825-9.825C902.135,199.415,897.727,195.007,892.309,195.007z"/>
		</g>
		<g clip-path="url(#SVGID_4_)">
			<path fill="#FFFFFF" d="M866.623,257.742c0-19.179,11.594-30.594,25.899-30.594c14.3,0,25.897,11.415,25.897,30.594H866.623z"/>
		</g>
		<g clip-path="url(#SVGID_4_)">
			<path fill="#276FB6" d="M921.382,260.706h-57.723v-2.963c0-19.758,11.869-33.557,28.864-33.557
				c16.992,0,28.86,13.799,28.86,33.557V260.706z M869.688,254.779h45.665c-1.039-14.877-9.951-24.667-22.831-24.667
				C879.64,230.112,870.727,239.902,869.688,254.779z"/>
		</g>
		<g clip-path="url(#SVGID_4_)">
			<path fill="#FFFFFF" d="M875.005,234.972c4.837,5.257,7.842,13.01,7.842,22.77"/>
		</g>
		<g clip-path="url(#SVGID_4_)">
			<path fill="#276FB6" d="M885.811,257.742h-5.927c0-8.564-2.441-15.744-7.059-20.764l4.362-4.013
				C882.828,239.099,885.811,247.667,885.811,257.742z"/>
		</g>
		<g clip-path="url(#SVGID_4_)">
			<path fill="#FFFFFF" d="M902.401,257.742c0-9.584,2.893-17.237,7.58-22.492"/>
		</g>
		<g clip-path="url(#SVGID_4_)">
			<path fill="#276FB6" d="M905.365,257.742h-5.927c0-9.893,2.88-18.353,8.331-24.465l4.423,3.946
				C907.725,242.23,905.365,249.327,905.365,257.742z"/>
		</g>
		<g clip-path="url(#SVGID_4_)">
			<path fill="#FFFFFF" d="M340.991,204.837c0,7.059-5.727,12.789-12.789,12.789c-7.067,0-12.795-5.73-12.795-12.789
				c0-7.065,5.727-12.795,12.795-12.795C335.264,192.043,340.991,197.773,340.991,204.837"/>
		</g>
		<g clip-path="url(#SVGID_4_)">
			<path fill="#276FB6" d="M328.202,220.59c-8.689,0-15.758-7.067-15.758-15.753c0-8.689,7.069-15.758,15.758-15.758
				c8.686,0,15.752,7.07,15.752,15.758C343.954,213.523,336.888,220.59,328.202,220.59z M328.202,195.006
				c-5.421,0-9.831,4.41-9.831,9.832c0,5.419,4.41,9.826,9.831,9.826c5.418,0,9.826-4.408,9.826-9.826
				C338.027,199.416,333.62,195.006,328.202,195.006z"/>
		</g>
		<g clip-path="url(#SVGID_4_)">
			<path fill="#FFFFFF" d="M302.513,257.747c0-19.181,11.594-30.597,25.897-30.597c14.305,0,25.899,11.415,25.899,30.597H302.513z"
				/>
		</g>
		<g clip-path="url(#SVGID_4_)">
			<path fill="#276FB6" d="M357.272,260.711H299.55v-2.963c0-19.759,11.867-33.56,28.86-33.56c16.994,0,28.862,13.801,28.862,33.56
				V260.711z M305.578,254.784h45.665c-1.04-14.878-9.953-24.67-22.834-24.67C315.53,230.114,306.618,239.906,305.578,254.784z"/>
		</g>
		<g clip-path="url(#SVGID_4_)">
			<path fill="#FFFFFF" d="M310.901,234.973c4.834,5.26,7.837,13.013,7.837,22.775"/>
		</g>
		<g clip-path="url(#SVGID_4_)">
			<path fill="#276FB6" d="M321.701,257.749h-5.927c0-8.565-2.44-15.748-7.056-20.77l4.364-4.01
				C318.721,239.103,321.701,247.672,321.701,257.749z"/>
		</g>
		<g clip-path="url(#SVGID_4_)">
			<path fill="#FFFFFF" d="M338.287,257.747c0-9.592,2.903-17.24,7.587-22.492"/>
		</g>
		<g clip-path="url(#SVGID_4_)">
			<path fill="#276FB6" d="M341.25,257.747h-5.927c0-9.888,2.884-18.348,8.34-24.465l4.423,3.946
				C343.614,242.242,341.25,249.337,341.25,257.747z"/>
		</g>
		<g clip-path="url(#SVGID_4_)">
			<path fill="#FFFFFF" d="M392.786,204.837c0,7.059-5.73,12.789-12.795,12.789c-7.059,0-12.787-5.73-12.787-12.789
				c0-7.065,5.727-12.795,12.787-12.795C387.056,192.043,392.786,197.773,392.786,204.837"/>
		</g>
		<g clip-path="url(#SVGID_4_)">
			<path fill="#8AA7D7" d="M392.786,204.837c0,7.059-5.73,12.789-12.795,12.789c-7.059,0-12.787-5.73-12.787-12.789
				c0-7.065,5.727-12.795,12.787-12.795C387.056,192.043,392.786,197.773,392.786,204.837"/>
		</g>
		<g clip-path="url(#SVGID_4_)">
			<path fill="#276FB6" d="M379.991,220.59c-8.685,0-15.75-7.067-15.75-15.753c0-8.689,7.065-15.758,15.75-15.758
				c8.689,0,15.758,7.07,15.758,15.758C395.75,213.523,388.681,220.59,379.991,220.59z M379.991,195.006
				c-5.417,0-9.823,4.41-9.823,9.832c0,5.419,4.407,9.826,9.823,9.826c5.421,0,9.832-4.408,9.832-9.826
				C389.823,199.416,385.413,195.006,379.991,195.006z"/>
		</g>
		<g clip-path="url(#SVGID_4_)">
			<path fill="#8AA7D7" d="M354.31,257.747c0-19.181,11.594-30.597,25.899-30.597c14.303,0,25.897,11.415,25.897,30.597H354.31z"/>
		</g>
		<g clip-path="url(#SVGID_4_)">
			<path fill="#276FB6" d="M409.069,260.711h-57.722v-2.963c0-19.759,11.869-33.56,28.862-33.56c16.992,0,28.86,13.801,28.86,33.56
				V260.711z M357.376,254.784h45.665c-1.04-14.878-9.952-24.67-22.831-24.67C367.329,230.114,358.415,239.906,357.376,254.784z"/>
		</g>
		<g clip-path="url(#SVGID_4_)">
			<path fill="#FFFFFF" d="M362.694,234.973c4.834,5.26,7.842,13.013,7.842,22.775"/>
		</g>
		<g clip-path="url(#SVGID_4_)">
			<path fill="#276FB6" d="M373.499,257.749h-5.927c0-8.562-2.442-15.744-7.061-20.77l4.364-4.01
				C370.517,239.107,373.499,247.676,373.499,257.749z"/>
		</g>
		<g clip-path="url(#SVGID_4_)">
			<path fill="#FFFFFF" d="M390.089,257.747c0-9.592,2.898-17.24,7.587-22.492"/>
		</g>
		<g clip-path="url(#SVGID_4_)">
			<path fill="#276FB6" d="M393.052,257.747h-5.927c0-9.894,2.884-18.355,8.34-24.466l4.421,3.949
				C395.416,242.237,393.052,249.332,393.052,257.747z"/>
		</g>
		<g clip-path="url(#SVGID_4_)">
			<path fill="#FFFFFF" d="M444.584,204.837c0,7.059-5.725,12.789-12.789,12.789s-12.792-5.73-12.792-12.789
				c0-7.065,5.727-12.795,12.792-12.795S444.584,197.773,444.584,204.837"/>
		</g>
		<g clip-path="url(#SVGID_4_)">
			<path fill="#276FB6" d="M431.795,220.59c-8.688,0-15.756-7.067-15.756-15.753c0-8.689,7.068-15.758,15.756-15.758
				c8.686,0,15.753,7.07,15.753,15.758C447.547,213.523,440.481,220.59,431.795,220.59z M431.795,195.006
				c-5.42,0-9.829,4.41-9.829,9.832c0,5.419,4.409,9.826,9.829,9.826c5.418,0,9.826-4.408,9.826-9.826
				C441.62,199.416,437.213,195.006,431.795,195.006z"/>
		</g>
		<g clip-path="url(#SVGID_4_)">
			<path fill="#FFFFFF" d="M406.108,257.747c0-19.181,11.594-30.597,25.899-30.597c14.3,0,25.899,11.415,25.899,30.597H406.108z"/>
		</g>
		<g clip-path="url(#SVGID_4_)">
			<path fill="#276FB6" d="M460.87,260.711h-57.725v-2.963c0-19.759,11.869-33.56,28.862-33.56c16.994,0,28.863,13.801,28.863,33.56
				V260.711z M409.173,254.784h45.668c-1.04-14.878-9.953-24.67-22.834-24.67C419.126,230.114,410.213,239.906,409.173,254.784z"/>
		</g>
		<g clip-path="url(#SVGID_4_)">
			<path fill="#FFFFFF" d="M414.491,234.973c4.837,5.26,7.842,13.013,7.842,22.775"/>
		</g>
		<g clip-path="url(#SVGID_4_)">
			<path fill="#276FB6" d="M425.296,257.749h-5.927c0-8.564-2.441-15.747-7.06-20.769l4.363-4.013
				C422.314,239.103,425.296,247.672,425.296,257.749z"/>
		</g>
		<g clip-path="url(#SVGID_4_)">
			<path fill="#FFFFFF" d="M441.887,257.747c0-9.592,2.893-17.24,7.58-22.492"/>
		</g>
		<g clip-path="url(#SVGID_4_)">
			<path fill="#276FB6" d="M444.85,257.747h-5.927c0-9.897,2.881-18.357,8.332-24.465l4.422,3.946
				C447.211,242.234,444.85,249.33,444.85,257.747z"/>
		</g>
		<g clip-path="url(#SVGID_4_)">
			<path fill="#FFFFFF" d="M112.798,204.837c0,7.059-5.727,12.789-12.789,12.789c-7.067,0-12.795-5.73-12.795-12.789
				c0-7.065,5.727-12.795,12.795-12.795C107.071,192.043,112.798,197.773,112.798,204.837"/>
		</g>
		<g clip-path="url(#SVGID_4_)">
			<path fill="#276FB6" d="M100.009,220.59c-8.689,0-15.758-7.067-15.758-15.753c0-8.689,7.069-15.758,15.758-15.758
				c8.686,0,15.752,7.07,15.752,15.758C115.761,213.523,108.695,220.59,100.009,220.59z M100.009,195.006
				c-5.421,0-9.832,4.41-9.832,9.832c0,5.419,4.41,9.826,9.832,9.826c5.418,0,9.826-4.408,9.826-9.826
				C109.835,199.416,105.427,195.006,100.009,195.006z"/>
		</g>
		<g clip-path="url(#SVGID_4_)">
			<path fill="#FFFFFF" d="M74.32,257.747c0-19.181,11.594-30.597,25.897-30.597c14.305,0,25.899,11.415,25.899,30.597H74.32z"/>
		</g>
		<g clip-path="url(#SVGID_4_)">
			<path fill="#276FB6" d="M129.079,260.711H71.356v-2.963c0-19.759,11.867-33.56,28.86-33.56c16.994,0,28.863,13.801,28.863,33.56
				V260.711z M77.385,254.784h45.665c-1.04-14.878-9.953-24.67-22.834-24.67C87.337,230.114,78.425,239.906,77.385,254.784z"/>
		</g>
		<g clip-path="url(#SVGID_4_)">
			<path fill="#FFFFFF" d="M82.708,234.973c4.834,5.26,7.837,13.013,7.837,22.775"/>
		</g>
		<g clip-path="url(#SVGID_4_)">
			<path fill="#276FB6" d="M93.508,257.749h-5.927c0-8.565-2.44-15.748-7.056-20.77l4.364-4.01
				C90.528,239.103,93.508,247.672,93.508,257.749z"/>
		</g>
		<g clip-path="url(#SVGID_4_)">
			<path fill="#FFFFFF" d="M110.094,257.747c0-9.592,2.903-17.24,7.587-22.492"/>
		</g>
		<g clip-path="url(#SVGID_4_)">
			<path fill="#276FB6" d="M113.057,257.747h-5.927c0-9.888,2.883-18.348,8.339-24.465l4.423,3.946
				C115.421,242.242,113.057,249.337,113.057,257.747z"/>
		</g>
		<g clip-path="url(#SVGID_4_)">
			<path fill="#8AA7D7" d="M164.593,204.837c0,7.059-5.73,12.789-12.795,12.789c-7.059,0-12.787-5.73-12.787-12.789
				c0-7.065,5.727-12.795,12.787-12.795C158.863,192.043,164.593,197.773,164.593,204.837"/>
		</g>
		<g clip-path="url(#SVGID_4_)">
			<path fill="#276FB6" d="M151.799,220.59c-8.685,0-15.75-7.067-15.75-15.753c0-8.689,7.065-15.758,15.75-15.758
				c8.689,0,15.758,7.07,15.758,15.758C167.556,213.523,160.487,220.59,151.799,220.59z M151.799,195.006
				c-5.417,0-9.823,4.41-9.823,9.832c0,5.419,4.407,9.826,9.823,9.826c5.421,0,9.831-4.408,9.831-9.826
				C161.63,199.416,157.219,195.006,151.799,195.006z"/>
		</g>
		<g clip-path="url(#SVGID_4_)">
			<path fill="#8AA7D7" d="M126.117,257.747c0-19.181,11.594-30.597,25.899-30.597c14.303,0,25.897,11.415,25.897,30.597H126.117z"
				/>
		</g>
		<g clip-path="url(#SVGID_4_)">
			<path fill="#276FB6" d="M180.877,260.711h-57.723v-2.963c0-19.759,11.869-33.56,28.862-33.56c16.993,0,28.86,13.801,28.86,33.56
				V260.711z M129.182,254.784h45.665c-1.04-14.878-9.952-24.67-22.832-24.67C139.135,230.114,130.222,239.906,129.182,254.784z"/>
		</g>
		<g clip-path="url(#SVGID_4_)">
			<path fill="#FFFFFF" d="M134.5,234.973c4.834,5.26,7.842,13.013,7.842,22.775"/>
		</g>
		<g clip-path="url(#SVGID_4_)">
			<path fill="#276FB6" d="M145.306,257.749h-5.927c0-8.562-2.442-15.744-7.061-20.77l4.364-4.01
				C142.324,239.107,145.306,247.675,145.306,257.749z"/>
		</g>
		<g clip-path="url(#SVGID_4_)">
			<path fill="#FFFFFF" d="M161.896,257.747c0-9.592,2.898-17.24,7.587-22.492"/>
		</g>
		<g clip-path="url(#SVGID_4_)">
			<path fill="#276FB6" d="M164.859,257.747h-5.927c0-9.894,2.884-18.355,8.34-24.466l4.421,3.949
				C167.223,242.237,164.859,249.332,164.859,257.747z"/>
		</g>
		<g clip-path="url(#SVGID_4_)">
			<path fill="#FFFFFF" d="M216.391,204.837c0,7.059-5.725,12.789-12.789,12.789s-12.792-5.73-12.792-12.789
				c0-7.065,5.727-12.795,12.792-12.795S216.391,197.773,216.391,204.837"/>
		</g>
		<g clip-path="url(#SVGID_4_)">
			<path fill="#276FB6" d="M203.601,220.59c-8.687,0-15.755-7.067-15.755-15.753c0-8.689,7.068-15.758,15.755-15.758
				c8.686,0,15.752,7.07,15.752,15.758C219.354,213.523,212.287,220.59,203.601,220.59z M203.601,195.006
				c-5.419,0-9.828,4.41-9.828,9.832c0,5.419,4.409,9.826,9.828,9.826c5.418,0,9.826-4.408,9.826-9.826
				C213.427,199.416,209.019,195.006,203.601,195.006z"/>
		</g>
		<g clip-path="url(#SVGID_4_)">
			<path fill="#FFFFFF" d="M177.915,257.747c0-19.181,11.594-30.597,25.899-30.597c14.3,0,25.899,11.415,25.899,30.597H177.915z"/>
		</g>
		<g clip-path="url(#SVGID_4_)">
			<path fill="#276FB6" d="M232.676,260.711h-57.725v-2.963c0-19.759,11.869-33.56,28.863-33.56
				c16.994,0,28.862,13.801,28.862,33.56V260.711z M180.98,254.784h45.668c-1.04-14.878-9.953-24.67-22.834-24.67
				C190.933,230.114,182.02,239.906,180.98,254.784z"/>
		</g>
		<g clip-path="url(#SVGID_4_)">
			<path fill="#FFFFFF" d="M186.298,234.973c4.837,5.26,7.842,13.013,7.842,22.775"/>
		</g>
		<g clip-path="url(#SVGID_4_)">
			<path fill="#276FB6" d="M197.104,257.749h-5.927c0-8.564-2.442-15.747-7.061-20.769l4.363-4.013
				C194.122,239.103,197.104,247.672,197.104,257.749z"/>
		</g>
		<g clip-path="url(#SVGID_4_)">
			<path fill="#FFFFFF" d="M213.694,257.747c0-9.592,2.893-17.24,7.58-22.492"/>
		</g>
		<g clip-path="url(#SVGID_4_)">
			<path fill="#276FB6" d="M216.657,257.747h-5.927c0-9.897,2.881-18.357,8.331-24.465l4.422,3.946
				C219.018,242.233,216.657,249.328,216.657,257.747z"/>
		</g>
		<g clip-path="url(#SVGID_4_)">
			<path fill="#95A7D6" d="M395.153,173.047c0-5.593-4.535-10.133-10.128-10.133h-2.688H354.32c-22.668,0-41.04-18.367-41.04-41.03
				s18.372-41.035,41.04-41.035h40.832c22.668,0,41.032,18.372,41.032,41.035c0,0.349,0,14.881-0.01,15.222
				c-0.554,22.184-18.711,39.994-41.022,39.994v-2.33V173.047z"/>
		</g>
		<g clip-path="url(#SVGID_4_)">
			<path fill="#FFFFFF" d="M395.944,133.435c0-4.435,3.599-8.042,8.039-8.042h2.136h22.242c17.994,0,32.578-14.581,32.578-32.57
				c0-17.994-14.584-32.578-32.578-32.578h-32.417c-17.991,0-32.578,14.584-32.578,32.578c0,0.278,0.003,11.812,0.008,12.088
				c0.444,17.605,14.86,31.742,32.57,31.742v-1.852V133.435z"/>
		</g>
		<g clip-path="url(#SVGID_4_)">
			<path fill="#276FB6" d="M398.204,138.915h-2.261c-18.733,0-34.358-15.228-34.829-33.946c-0.006-0.291-0.006-9.368-0.006-12.145
				c0-19.21,15.627-34.839,34.836-34.839h32.418c19.21,0,34.838,15.629,34.838,34.839c0,19.206-15.629,34.831-34.838,34.831h-24.376
				c-3.188,0-5.781,2.593-5.781,5.781V138.915z M395.943,62.507c-16.715,0-30.314,13.6-30.314,30.317
				c0,0.276-0.001,11.613,0.004,12.053c0.391,15.506,12.769,28.274,28.048,29.43v-0.872c0-5.681,4.622-10.303,10.303-10.303h24.376
				c16.717,0,30.316-13.596,30.316-30.309c0-16.717-13.6-30.317-30.316-30.317H395.943z"/>
		</g>
		<g clip-path="url(#SVGID_4_)">
			<path fill="#95A7D6" d="M545.736,96.015c0-3.423,2.188-5.704,5.706-5.704c3.513,0,5.698,2.28,5.698,5.704v13.777h13.78
				c3.518,0,5.704,2.28,5.704,5.701c0,3.421-2.186,5.706-5.704,5.706h-13.78v13.772c0,3.426-2.186,5.706-5.698,5.706
				c-3.518,0-5.706-2.28-5.706-5.706V121.2h-13.777c-3.515,0-5.701-2.286-5.701-5.706c0-3.421,2.186-5.701,5.701-5.701h13.777
				V96.015z"/>
		</g>
		<g clip-path="url(#SVGID_4_)">
			<path fill="#276FB6" d="M575.805,65.945c0-3.418,2.186-5.698,5.701-5.698s5.704,2.28,5.704,5.698v13.782h13.777
				c3.518,0,5.701,2.28,5.701,5.704c0,3.418-2.183,5.696-5.701,5.696H587.21v13.782c0,3.421-2.188,5.698-5.704,5.698
				s-5.701-2.278-5.701-5.698V91.127h-13.777c-3.518,0-5.706-2.278-5.706-5.696c0-3.423,2.188-5.704,5.706-5.704h13.777V65.945z"/>
		</g>
		<g clip-path="url(#SVGID_4_)">
			<path fill="#276FB6" d="M575.805,124.886c0-3.415,2.186-5.698,5.701-5.698s5.704,2.283,5.704,5.698v13.775h13.777
				c3.518,0,5.701,2.283,5.701,5.709c0,3.421-2.183,5.698-5.701,5.698H587.21v13.78c0,3.423-2.188,5.698-5.704,5.698
				s-5.701-2.275-5.701-5.698v-13.78h-13.777c-3.518,0-5.706-2.278-5.706-5.698c0-3.426,2.188-5.709,5.706-5.709h13.777V124.886z"/>
		</g>
		<g clip-path="url(#SVGID_4_)">
			<path fill="#276FB6" d="M646.623,170.177c-10.477,0-17.794-7.314-17.794-17.789v-19.371h-19.365
				c-10.477,0-17.794-7.312-17.794-17.786c0-10.48,7.317-17.794,17.794-17.794h19.365V78.064c0-10.475,7.317-17.792,17.794-17.792
				c10.475,0,17.786,7.317,17.786,17.792v19.373h19.373c10.475,0,17.794,7.314,17.794,17.794c0,10.475-7.32,17.786-17.794,17.786
				h-19.373v19.371C664.409,162.863,657.098,170.177,646.623,170.177"/>
		</g>
		<g clip-path="url(#SVGID_4_)">
			<path fill="#FFFFFF" d="M635.745,78.063c0-6.526,4.169-10.874,10.879-10.874c6.707,0,10.874,4.348,10.874,10.874v26.291h26.283
				c6.713,0,10.877,4.345,10.877,10.877c0,6.518-4.164,10.866-10.877,10.866h-26.283v26.291c0,6.529-4.167,10.877-10.874,10.877
				c-6.71,0-10.879-4.348-10.879-10.877v-26.291h-26.283c-6.71,0-10.877-4.348-10.877-10.866c0-6.531,4.167-10.877,10.877-10.877
				h26.283V78.063z"/>
		</g>
		<g clip-path="url(#SVGID_4_)">
			<path fill="#8AA7D7" d="M869.128,149.146c21.097,0,38.197-17.101,38.197-38.197s-17.101-38.203-38.197-38.203
				c-1.592,0-3.15,0.105-4.687,0.297c-5.328-8.972-15.107-14.988-26.304-14.988c-11.189,0-20.968,6.016-26.288,14.988
				c-1.54-0.192-3.105-0.297-4.69-0.297c-21.099,0-38.205,17.106-38.205,38.203s17.106,38.197,38.205,38.197H869.128z"/>
		</g>
		<g clip-path="url(#SVGID_4_)">
			<path fill="#276FB6" d="M869.127,151.849h-61.968c-22.557,0-40.908-18.348-40.908-40.901c0-22.555,18.351-40.906,40.908-40.906
				c1.084,0,2.188,0.046,3.298,0.139c6.133-9.19,16.582-14.83,27.68-14.83c11.099,0,21.554,5.641,27.694,14.83
				c1.11-0.092,2.213-0.139,3.297-0.139c22.553,0,40.9,18.35,40.9,40.906C910.028,133.501,891.681,151.849,869.127,151.849z
				 M807.159,75.45c-19.576,0-35.502,15.924-35.502,35.498c0,19.571,15.926,35.494,35.502,35.494h61.968
				c19.572,0,35.495-15.922,35.495-35.494c0-19.574-15.922-35.498-35.495-35.498c-1.442,0-2.866,0.09-4.353,0.275l-1.756,0.219
				l-0.903-1.521c-5.006-8.429-14.193-13.665-23.979-13.665c-9.783,0-18.965,5.235-23.962,13.663l-0.903,1.523l-1.757-0.219
				C810.047,75.542,808.582,75.45,807.159,75.45z"/>
		</g>
		<g clip-path="url(#SVGID_4_)">
			<polygon fill="#FFFFFF" points="858.267,172.934 858.267,140.32 873.486,140.323 840.667,107.506 807.853,140.32 822.86,140.32 
				822.86,172.932 			"/>
		</g>
		<g clip-path="url(#SVGID_4_)">
			<path fill="#276FB6" d="M858.267,175.638L858.267,175.638l-35.407-0.003c-1.493,0-2.703-1.21-2.703-2.704v-29.911h-12.304
				c-1.093,0-2.079-0.659-2.498-1.669s-0.187-2.173,0.586-2.946l32.813-32.812c1.055-1.056,2.768-1.056,3.823,0l32.82,32.817
				c0.774,0.773,1.004,1.936,0.586,2.947c-0.418,1.01-1.405,1.668-2.498,1.668c0,0,0,0-0.001,0l-12.515-0.004v29.913
				c0,0.717-0.285,1.405-0.792,1.911C859.672,175.353,858.984,175.638,858.267,175.638z M825.562,170.229l30.002,0.002v-29.914
				c0-0.717,0.285-1.405,0.792-1.912c0.507-0.507,1.194-0.792,1.911-0.792c0,0,0,0,0.001,0l8.689,0.003l-26.29-26.288
				l-26.286,26.285h8.479c1.493,0,2.703,1.21,2.703,2.704V170.229z"/>
		</g>
	</g>
</g>
</svg>
